<?xml version="1.0" standalone="no"?>
<!DOCTYPE svg PUBLIC "-//W3C//DTD SVG 20010904//EN"
 "http://www.w3.org/TR/2001/REC-SVG-20010904/DTD/svg10.dtd">
<svg version="1.0" xmlns="http://www.w3.org/2000/svg"
 width="90.000000pt" height="90.000000pt" viewBox="0 0 90.000000 90.000000"
 preserveAspectRatio="xMidYMid meet">
<metadata>
Created by potrace 1.16, written by Peter Selinger 2001-2019
</metadata>
<g transform="translate(0.000000,90.000000) scale(0.100000,-0.100000)"
fill="#000000" stroke="none">
<path d="M377 889 c-84 -12 -176 -60 -241 -125 -220 -220 -152 -593 131 -727
64 -30 74 -32 183 -32 95 0 124 4 170 23 111 44 208 141 252 252 19 46 23 75
23 170 0 109 -2 119 -32 182 -88 187 -279 288 -486 257z m205 -50 c214 -72
333 -296 270 -505 -113 -373 -608 -408 -775 -56 -29 62 -32 75 -32 167 1 80 5
111 24 158 24 62 108 161 166 197 100 62 235 77 347 39z"/>
<path d="M585 741 c-32 -14 -53 -43 -64 -89 -23 -103 -179 -253 -287 -276 -82
-18 -109 -126 -39 -158 14 -6 25 -17 25 -24 0 -20 42 -44 78 -44 44 0 78 35
87 89 16 93 169 244 280 277 31 9 61 25 70 37 22 31 19 83 -6 106 -35 32 -39
35 -57 58 -20 26 -58 36 -87 24z m63 -43 c7 -7 12 -20 12 -30 0 -11 7 -18 18
-18 24 0 42 -19 42 -46 0 -28 -17 -41 -78 -59 -88 -27 -216 -136 -262 -225
-10 -19 -23 -54 -29 -78 -8 -30 -20 -46 -37 -54 -30 -14 -57 -1 -62 28 -2 11
-16 25 -32 31 -55 21 -33 83 35 98 47 11 115 54 174 109 68 65 106 120 121
176 7 25 19 53 27 63 19 20 54 22 71 5z"/>
</g>
</svg>
