<?xml version="1.0" standalone="no"?>
<!DOCTYPE svg PUBLIC "-//W3C//DTD SVG 20010904//EN"
 "http://www.w3.org/TR/2001/REC-SVG-20010904/DTD/svg10.dtd">
<svg version="1.0" xmlns="http://www.w3.org/2000/svg"
 width="90.000000pt" height="90.000000pt" viewBox="0 0 90.000000 90.000000"
 preserveAspectRatio="xMidYMid meet">
<metadata>
Created by potrace 1.16, written by Peter Selinger 2001-2019
</metadata>
<g transform="translate(0.000000,90.000000) scale(0.100000,-0.100000)"
fill="#000000" stroke="none">
<path d="M366 889 c-81 -13 -187 -72 -244 -134 -204 -222 -135 -580 135 -708
65 -31 74 -32 189 -32 118 0 121 0 195 37 192 95 288 305 234 511 -22 83 -50
133 -113 199 -66 69 -148 112 -242 127 -73 12 -84 12 -154 0z m255 -67 c161
-77 260 -264 230 -434 -24 -136 -105 -244 -229 -305 -73 -36 -80 -38 -177 -38
-92 0 -106 3 -167 32 -290 137 -324 534 -62 714 77 53 137 69 244 66 83 -3
103 -7 161 -35z"/>
<path d="M377 746 c-58 -16 -94 -41 -125 -87 -19 -28 -23 -44 -20 -95 2 -49
-2 -69 -21 -106 l-25 -45 22 -28 c12 -15 22 -35 22 -44 0 -10 4 -21 9 -27 5
-5 11 -25 13 -44 3 -34 5 -35 48 -38 49 -4 60 -13 60 -54 0 -22 5 -28 21 -28
15 0 19 5 15 18 -2 9 -8 36 -11 60 l-7 43 -46 -3 c-44 -3 -47 -1 -49 22 -3 44
-26 115 -40 123 -11 7 -10 15 7 42 18 29 20 44 15 92 -6 50 -4 63 17 93 34 52
98 80 178 80 110 -1 178 -45 201 -131 11 -41 10 -53 -5 -93 -10 -25 -33 -65
-52 -87 -27 -32 -34 -50 -34 -82 0 -71 11 -117 28 -117 12 0 13 11 8 69 -7 67
-6 70 23 104 110 125 86 294 -50 351 -53 22 -147 28 -202 12z"/>
<path d="M415 610 c-43 -44 -76 -83 -72 -87 4 -4 47 31 95 78 l87 84 -80 -82
c-44 -46 -73 -83 -65 -83 8 0 51 35 95 78 l80 77 -73 -76 -74 -76 29 -7 c15
-4 42 -18 59 -31 52 -40 77 -41 108 -5 41 49 31 58 -16 15 l-43 -40 43 46 c32
34 41 51 38 70 -2 13 -5 27 -5 32 -3 25 -87 87 -119 87 -4 0 -43 -36 -87 -80z"/>
</g>
</svg>
