<?xml version="1.0" standalone="no"?>
<!DOCTYPE svg PUBLIC "-//W3C//DTD SVG 20010904//EN"
 "http://www.w3.org/TR/2001/REC-SVG-20010904/DTD/svg10.dtd">
<svg version="1.0" xmlns="http://www.w3.org/2000/svg"
 width="90.000000pt" height="90.000000pt" viewBox="0 0 90.000000 90.000000"
 preserveAspectRatio="xMidYMid meet">
<metadata>
Created by potrace 1.16, written by Peter Selinger 2001-2019
</metadata>
<g transform="translate(0.000000,90.000000) scale(0.100000,-0.100000)"
fill="#000000" stroke="none">
<path d="M310 871 c-184 -59 -300 -222 -300 -421 0 -254 186 -440 440 -440
254 0 440 186 440 440 0 149 -59 268 -176 357 -103 79 -274 106 -404 64z m295
-41 c84 -32 192 -140 226 -225 33 -85 33 -225 0 -310 -34 -84 -142 -192 -226
-226 -85 -33 -225 -33 -310 0 -84 34 -192 142 -226 226 -33 85 -33 225 0 308
25 63 108 161 168 198 101 63 249 74 368 29z"/>
<path d="M263 658 c-17 -18 -35 -42 -41 -53 -6 -11 -10 -89 -10 -174 l0 -155
32 -32 c36 -36 91 -54 173 -57 80 -3 80 18 1 27 -104 12 -178 55 -178 103 0
29 1 29 45 -1 150 -102 453 -14 431 124 -7 43 -7 47 0 90 15 90 -111 149 -260
121 -74 -14 -136 -43 -181 -86 -31 -28 -35 -30 -35 -12 0 26 37 84 61 97 22
12 26 40 6 40 -7 0 -27 -15 -44 -32z m370 -52 c39 -16 64 -54 53 -81 -5 -14
-9 -14 -38 2 -47 24 -187 24 -253 -1 -28 -11 -63 -28 -78 -38 -29 -21 -57 -18
-57 5 0 19 59 72 108 97 84 41 189 48 265 16z m-33 -99 c59 -16 58 -36 -5 -67
-40 -19 -65 -25 -125 -25 -71 0 -150 18 -150 34 0 11 87 49 135 60 54 12 92
12 145 -2z m90 -77 c0 -31 -57 -87 -108 -107 -72 -28 -193 -24 -256 8 -61 30
-77 52 -55 74 14 14 20 14 60 -1 28 -11 76 -18 134 -18 82 -1 95 2 150 30 74
38 75 38 75 14z"/>
</g>
</svg>
