<?xml version="1.0" standalone="no"?>
<!DOCTYPE svg PUBLIC "-//W3C//DTD SVG 20010904//EN"
 "http://www.w3.org/TR/2001/REC-SVG-20010904/DTD/svg10.dtd">
<svg version="1.0" xmlns="http://www.w3.org/2000/svg"
 width="90.000000pt" height="90.000000pt" viewBox="0 0 90.000000 90.000000"
 preserveAspectRatio="xMidYMid meet">
<metadata>
Created by potrace 1.16, written by Peter Selinger 2001-2019
</metadata>
<g transform="translate(0.000000,90.000000) scale(0.100000,-0.100000)"
fill="#000000" stroke="none">
<path d="M315 873 c-122 -44 -214 -127 -268 -241 -30 -64 -32 -73 -32 -187 0
-114 2 -123 32 -188 81 -171 241 -265 432 -255 101 6 174 31 246 86 108 82
165 192 173 333 10 189 -79 344 -246 426 -71 36 -82 38 -181 41 -82 2 -117 -2
-156 -15z m307 -51 c118 -56 192 -141 230 -266 91 -301 -207 -599 -508 -508
-125 38 -210 111 -268 232 -28 59 -31 74 -31 165 0 92 3 106 32 167 40 85 106
156 182 197 79 42 121 51 218 47 66 -3 95 -10 145 -34z"/>
<path d="M373 598 c-50 -78 -89 -146 -87 -150 3 -4 63 -8 135 -8 71 0 129 -2
129 -4 0 -2 -29 -64 -65 -137 -62 -128 -68 -149 -41 -149 11 0 157 292 156
312 0 4 -59 9 -130 10 l-131 3 81 123 c44 68 80 127 80 133 0 5 -8 9 -17 9
-12 0 -49 -49 -110 -142z"/>
</g>
</svg>
