<?xml version="1.0" standalone="no"?>
<!DOCTYPE svg PUBLIC "-//W3C//DTD SVG 20010904//EN"
 "http://www.w3.org/TR/2001/REC-SVG-20010904/DTD/svg10.dtd">
<svg version="1.0" xmlns="http://www.w3.org/2000/svg"
 width="90.000000pt" height="90.000000pt" viewBox="0 0 90.000000 90.000000"
 preserveAspectRatio="xMidYMid meet">
<metadata>
Created by potrace 1.16, written by Peter Selinger 2001-2019
</metadata>
<g transform="translate(0.000000,90.000000) scale(0.100000,-0.100000)"
fill="#000000" stroke="none">
<path d="M370 889 c-232 -39 -396 -271 -360 -506 38 -243 265 -410 508 -373
343 53 495 464 270 734 -91 110 -267 171 -418 145z m254 -68 c85 -42 156 -112
198 -198 31 -64 33 -74 33 -173 0 -99 -2 -109 -33 -173 -43 -86 -113 -156
-199 -199 -64 -31 -74 -33 -173 -33 -99 0 -109 2 -173 33 -86 42 -156 113
-198 198 -41 83 -51 198 -25 287 24 83 90 173 164 224 86 59 138 73 248 70 80
-2 99 -7 158 -36z"/>
<path d="M323 540 c-65 -26 -146 -95 -121 -105 10 -4 34 6 65 28 73 51 79 52
75 6 -3 -25 2 -48 13 -65 16 -25 16 -25 -4 -15 -30 16 -53 14 -49 -6 5 -24 63
-41 144 -42 87 -1 134 13 134 41 0 14 -5 18 -15 14 -51 -21 -49 -21 -30 7 11
18 16 40 13 67 -2 22 -2 40 0 40 10 0 72 -37 103 -61 31 -24 39 -27 48 -15 9
11 4 20 -26 45 -69 57 -120 76 -213 78 -66 2 -96 -2 -137 -17z m152 -16 c26
-11 46 -59 35 -88 -19 -50 -77 -60 -116 -20 -20 19 -24 31 -20 52 12 48 57 73
101 56z"/>
</g>
</svg>
