<?xml version="1.0" standalone="no"?>
<!DOCTYPE svg PUBLIC "-//W3C//DTD SVG 20010904//EN"
 "http://www.w3.org/TR/2001/REC-SVG-20010904/DTD/svg10.dtd">
<svg version="1.0" xmlns="http://www.w3.org/2000/svg"
 width="90.000000pt" height="90.000000pt" viewBox="0 0 90.000000 90.000000"
 preserveAspectRatio="xMidYMid meet">
<metadata>
Created by potrace 1.16, written by Peter Selinger 2001-2019
</metadata>
<g transform="translate(0.000000,90.000000) scale(0.100000,-0.100000)"
fill="#000000" stroke="none">
<path d="M294 866 c-178 -66 -284 -221 -284 -416 0 -257 183 -440 440 -440
257 0 440 183 440 440 0 197 -106 351 -287 417 -89 32 -222 32 -309 -1z m327
-44 c84 -40 160 -116 202 -201 30 -62 32 -73 31 -171 0 -91 -3 -112 -26 -160
-97 -208 -321 -300 -533 -220 -84 32 -192 140 -226 225 -33 85 -33 225 0 308
43 108 169 218 284 248 18 4 71 7 118 5 71 -3 97 -9 150 -34z"/>
<path d="M260 440 c0 -242 2 -280 15 -280 13 0 15 38 15 280 0 242 -2 280 -15
280 -13 0 -15 -38 -15 -280z"/>
<path d="M330 441 c0 -244 2 -281 15 -281 13 0 15 35 13 277 -2 210 -6 277
-15 281 -10 3 -13 -57 -13 -277z"/>
<path d="M400 440 c0 -242 2 -280 15 -280 13 0 15 38 15 280 0 242 -2 280 -15
280 -13 0 -15 -38 -15 -280z"/>
<path d="M470 440 c0 -242 2 -280 15 -280 13 0 15 38 15 280 0 242 -2 280 -15
280 -13 0 -15 -38 -15 -280z"/>
<path d="M540 440 c0 -242 2 -280 15 -280 13 0 15 38 15 280 0 242 -2 280 -15
280 -13 0 -15 -38 -15 -280z"/>
<path d="M610 440 c0 -242 2 -280 15 -280 13 0 15 38 15 280 0 242 -2 280 -15
280 -13 0 -15 -38 -15 -280z"/>
</g>
</svg>
