<?xml version="1.0" standalone="no"?>
<!DOCTYPE svg PUBLIC "-//W3C//DTD SVG 20010904//EN"
 "http://www.w3.org/TR/2001/REC-SVG-20010904/DTD/svg10.dtd">
<svg version="1.0" xmlns="http://www.w3.org/2000/svg"
 width="90.000000pt" height="90.000000pt" viewBox="0 0 90.000000 90.000000"
 preserveAspectRatio="xMidYMid meet">
<metadata>
Created by potrace 1.16, written by Peter Selinger 2001-2019
</metadata>
<g transform="translate(0.000000,90.000000) scale(0.100000,-0.100000)"
fill="#000000" stroke="none">
<path d="M294 866 c-178 -66 -284 -221 -284 -416 0 -257 183 -440 440 -440
257 0 440 183 440 440 0 197 -106 351 -287 417 -89 32 -222 32 -309 -1z m279
-26 c263 -81 372 -412 208 -630 -115 -153 -307 -208 -486 -140 -84 32 -192
140 -226 225 -33 85 -33 225 0 308 25 63 108 161 168 198 94 58 224 73 336 39z"/>
<path d="M266 650 c-85 -26 -122 -138 -77 -235 42 -90 203 -245 257 -245 52 0
227 160 264 242 37 82 19 177 -42 222 -56 40 -168 18 -199 -41 -16 -29 -22
-29 -38 0 -25 46 -107 75 -165 57z m106 -50 c14 -11 35 -40 47 -65 12 -25 26
-45 31 -45 5 0 19 20 31 45 40 86 108 110 168 59 82 -69 48 -184 -93 -309 -82
-74 -99 -82 -133 -64 -15 8 -52 37 -83 66 -138 127 -170 239 -89 307 37 32 86
34 121 6z"/>
</g>
</svg>
