<svg id="Energy_Icon" data-name="Energy Icon" xmlns="http://www.w3.org/2000/svg" width="35" height="35" viewBox="0 0 35 35">
  <path id="Fill_5" data-name="Fill 5" d="M17.5,35A17.5,17.5,0,0,1,5.127,5.12,17.506,17.506,0,0,1,29.882,29.88,17.387,17.387,0,0,1,17.5,35ZM17.5.875A16.626,16.626,0,0,0,5.753,29.255a16.622,16.622,0,0,0,23.5-23.511A16.513,16.513,0,0,0,17.5.875Z" fill="#272626"/>
  <path id="Fill_3" data-name="Fill 3" d="M6,23a.622.622,0,0,1-.182-.027.388.388,0,0,1-.287-.527L10.76,11.585H.5a.533.533,0,0,1-.431-.2.338.338,0,0,1-.015-.4L7.073.216a.569.569,0,0,1,.679-.17A.371.371,0,0,1,7.963.6L1.337,10.771H11.5a.543.543,0,0,1,.414.177.337.337,0,0,1,.053.377L6.469,22.74A.512.512,0,0,1,6,23" transform="translate(11 6)" fill="#272626" stroke="#272626" stroke-miterlimit="10" stroke-width="1"/>
</svg>
