<svg id="Digestion_Icon" data-name="Digestion Icon" xmlns="http://www.w3.org/2000/svg" width="35" height="35" viewBox="0 0 35 35">
  <path id="Fill_5" data-name="Fill 5" d="M17.5,35A17.5,17.5,0,0,1,5.127,5.12,17.506,17.506,0,0,1,29.882,29.88,17.387,17.387,0,0,1,17.5,35ZM17.5.875A16.626,16.626,0,0,0,5.753,29.255a16.622,16.622,0,0,0,23.5-23.511A16.513,16.513,0,0,0,17.5.875Z" fill="#272626"/>
  <path id="Fill_6" data-name="Fill 6" d="M10,20C3.925,20,0,17.9,0,14.653a5.688,5.688,0,0,1,.568-2.378A4.18,4.18,0,0,1,0,10.268v-.084A5.739,5.739,0,0,1,.568,7.869,4.16,4.16,0,0,1,0,5.8C0,3.839,1.407,1.643,3.671.066A.36.36,0,0,1,3.877,0a.366.366,0,0,1,.311.177.407.407,0,0,1-.105.546C2.056,2.134.746,4.125.746,5.8A3.347,3.347,0,0,0,1,7.067,12.8,12.8,0,0,1,9.944,1.646a17.794,17.794,0,0,1,2.8-.231,9.025,9.025,0,0,1,6.045,1.824A3.422,3.422,0,0,1,20,5.8a4.236,4.236,0,0,1-.74,2.352A3.246,3.246,0,0,1,20,10.2c0,3.435-4.486,6.23-10,6.23-3.8,0-7.219-1.315-8.934-3.432a4.713,4.713,0,0,0-.32,1.651c0,3.15,4.648,4.559,9.254,4.559A.394.394,0,0,1,10,20ZM2.959,10.217a8.441,8.441,0,0,0-1.544,2.018,7.314,7.314,0,0,0,3.351,2.455A14.087,14.087,0,0,0,10,15.646c5.1,0,9.254-2.441,9.254-5.442a2.44,2.44,0,0,0-.474-1.426c-1.761,2-5.125,3.249-8.78,3.249A13.563,13.563,0,0,1,2.959,10.217ZM1.066,8.593a4.743,4.743,0,0,0-.32,1.63A3.358,3.358,0,0,0,1,11.475,9.574,9.574,0,0,1,2.33,9.79,6.962,6.962,0,0,1,1.066,8.593ZM12.716,6.614h0a16.885,16.885,0,0,0-2.66.219A13.256,13.256,0,0,0,3.54,9.69,13.19,13.19,0,0,0,10,11.238c3.526,0,6.7-1.155,8.279-3.013a8.414,8.414,0,0,0-5.562-1.61Zm0-4.407h0a16.87,16.87,0,0,0-2.658.218c-4.636.743-7.5,3.278-8.642,5.4A5.875,5.875,0,0,0,2.879,9.269,13.785,13.785,0,0,1,9.944,6.054a17.8,17.8,0,0,1,2.8-.232A9.1,9.1,0,0,1,18.733,7.6a3.473,3.473,0,0,0,.521-1.8A2.644,2.644,0,0,0,18.3,3.836a8.385,8.385,0,0,0-5.585-1.628Z" transform="translate(8 8)" fill="#272626"/>
</svg>
