<svg id="Brain_Icon" data-name="Brain Icon" xmlns="http://www.w3.org/2000/svg" xmlns:xlink="http://www.w3.org/1999/xlink" width="35" height="35" viewBox="0 0 35 35">
  <defs>
    <clipPath id="clip-path">
      <path id="Clip_2" data-name="Clip 2" d="M6.369,0A9.673,9.673,0,0,0,2.359.82h0A4,4,0,0,0,.081,3.339h0A1.9,1.9,0,0,0,.818,5.446h0a2.986,2.986,0,0,0,1.79.629h0c.616.031,1.234.01,1.851.035h0A4.938,4.938,0,0,1,7.673,7.391h0a5.136,5.136,0,0,0,1.484.96h0a2.015,2.015,0,0,0,2.581-.6h0a3.763,3.763,0,0,0,.872-2.315h0a4.52,4.52,0,0,0-.894-3.02h0A6.167,6.167,0,0,0,8.285.232h0A7.214,7.214,0,0,0,6.4,0H6.369" transform="translate(0.289 0.273)" fill="none"/>
    </clipPath>
  </defs>
  <g id="Group_3" data-name="Group 3" transform="translate(12 8)">
    <path id="Clip_2-2" data-name="Clip 2" d="M6.369,0A9.673,9.673,0,0,0,2.359.82h0A4,4,0,0,0,.081,3.339h0A1.9,1.9,0,0,0,.818,5.446h0a2.986,2.986,0,0,0,1.79.629h0c.616.031,1.234.01,1.851.035h0A4.938,4.938,0,0,1,7.673,7.391h0a5.136,5.136,0,0,0,1.484.96h0a2.015,2.015,0,0,0,2.581-.6h0a3.763,3.763,0,0,0,.872-2.315h0a4.52,4.52,0,0,0-.894-3.02h0A6.167,6.167,0,0,0,8.285.232h0A7.214,7.214,0,0,0,6.4,0H6.369" transform="translate(0.289 0.273)" fill="none"/>
    <g id="Group_3-2" data-name="Group 3" clip-path="url(#clip-path)">
      <path id="Stroke_1" data-name="Stroke 1" d="M32.843,0,0,29.734" transform="translate(-17.493 -13.549)" fill="none" stroke="#272626" stroke-linejoin="round" stroke-miterlimit="10" stroke-width="0.51"/>
    </g>
  </g>
  <g id="Group_6" data-name="Group 6" transform="translate(12 8)">
    <path id="Clip_5-2" data-name="Clip 5" d="M6.369,0A9.673,9.673,0,0,0,2.359.82h0A4,4,0,0,0,.081,3.339h0A1.9,1.9,0,0,0,.818,5.446h0a2.986,2.986,0,0,0,1.79.629h0c.616.031,1.234.01,1.851.035h0A4.938,4.938,0,0,1,7.673,7.391h0a5.136,5.136,0,0,0,1.484.96h0a2.015,2.015,0,0,0,2.581-.6h0a3.763,3.763,0,0,0,.872-2.315h0a4.52,4.52,0,0,0-.894-3.02h0A6.167,6.167,0,0,0,8.285.232h0A7.214,7.214,0,0,0,6.4,0H6.369" transform="translate(0.289 0.273)" fill="none"/>
    <g id="Group_6-2" data-name="Group 6" clip-path="url(#clip-path)">
      <path id="Stroke_4" data-name="Stroke 4" d="M32.843,0,0,29.734" transform="translate(-16.67 -12.804)" fill="none" stroke="#272626" stroke-linejoin="round" stroke-miterlimit="10" stroke-width="0.51"/>
    </g>
  </g>
  <g id="Group_9" data-name="Group 9" transform="translate(12 8)">
    <path id="Clip_8-2" data-name="Clip 8" d="M6.369,0A9.673,9.673,0,0,0,2.359.82h0A4,4,0,0,0,.081,3.339h0A1.9,1.9,0,0,0,.818,5.446h0a2.986,2.986,0,0,0,1.79.629h0c.616.031,1.234.01,1.851.035h0A4.938,4.938,0,0,1,7.673,7.391h0a5.136,5.136,0,0,0,1.484.96h0a2.015,2.015,0,0,0,2.581-.6h0a3.763,3.763,0,0,0,.872-2.315h0a4.52,4.52,0,0,0-.894-3.02h0A6.167,6.167,0,0,0,8.285.232h0A7.214,7.214,0,0,0,6.4,0H6.369" transform="translate(0.289 0.273)" fill="none"/>
    <g id="Group_9-2" data-name="Group 9" clip-path="url(#clip-path)">
      <path id="Stroke_7" data-name="Stroke 7" d="M32.844,0,0,29.734" transform="translate(-15.846 -12.058)" fill="none" stroke="#272626" stroke-linejoin="round" stroke-miterlimit="10" stroke-width="0.51"/>
    </g>
  </g>
  <g id="Group_12" data-name="Group 12" transform="translate(12 8)">
    <path id="Clip_11-2" data-name="Clip 11" d="M6.369,0A9.673,9.673,0,0,0,2.359.82h0A4,4,0,0,0,.081,3.339h0A1.9,1.9,0,0,0,.818,5.446h0a2.986,2.986,0,0,0,1.79.629h0c.616.031,1.234.01,1.851.035h0A4.938,4.938,0,0,1,7.673,7.391h0a5.136,5.136,0,0,0,1.484.96h0a2.015,2.015,0,0,0,2.581-.6h0a3.763,3.763,0,0,0,.872-2.315h0a4.52,4.52,0,0,0-.894-3.02h0A6.167,6.167,0,0,0,8.285.232h0A7.214,7.214,0,0,0,6.4,0H6.369" transform="translate(0.289 0.273)" fill="none"/>
    <g id="Group_12-2" data-name="Group 12" clip-path="url(#clip-path)">
      <path id="Stroke_10" data-name="Stroke 10" d="M32.844,0,0,29.734" transform="translate(-15.023 -11.313)" fill="none" stroke="#272626" stroke-linejoin="round" stroke-miterlimit="10" stroke-width="0.51"/>
    </g>
  </g>
  <g id="Group_15" data-name="Group 15" transform="translate(12 8)">
    <path id="Clip_14-2" data-name="Clip 14" d="M6.369,0A9.673,9.673,0,0,0,2.359.82h0A4,4,0,0,0,.081,3.339h0A1.9,1.9,0,0,0,.818,5.446h0a2.986,2.986,0,0,0,1.79.629h0c.616.031,1.234.01,1.851.035h0A4.938,4.938,0,0,1,7.673,7.391h0a5.136,5.136,0,0,0,1.484.96h0a2.015,2.015,0,0,0,2.581-.6h0a3.763,3.763,0,0,0,.872-2.315h0a4.52,4.52,0,0,0-.894-3.02h0A6.167,6.167,0,0,0,8.285.232h0A7.214,7.214,0,0,0,6.4,0H6.369" transform="translate(0.289 0.273)" fill="none"/>
    <g id="Group_15-2" data-name="Group 15" clip-path="url(#clip-path)">
      <path id="Stroke_13" data-name="Stroke 13" d="M32.843,0,0,29.734" transform="translate(-14.199 -10.568)" fill="none" stroke="#272626" stroke-linejoin="round" stroke-miterlimit="10" stroke-width="0.51"/>
    </g>
  </g>
  <g id="Group_18" data-name="Group 18" transform="translate(12 8)">
    <path id="Clip_17-2" data-name="Clip 17" d="M6.369,0A9.673,9.673,0,0,0,2.359.82h0A4,4,0,0,0,.081,3.339h0A1.9,1.9,0,0,0,.818,5.446h0a2.986,2.986,0,0,0,1.79.629h0c.616.031,1.234.01,1.851.035h0A4.938,4.938,0,0,1,7.673,7.391h0a5.136,5.136,0,0,0,1.484.96h0a2.015,2.015,0,0,0,2.581-.6h0a3.763,3.763,0,0,0,.872-2.315h0a4.52,4.52,0,0,0-.894-3.02h0A6.167,6.167,0,0,0,8.285.232h0A7.214,7.214,0,0,0,6.4,0H6.369" transform="translate(0.289 0.273)" fill="none"/>
    <g id="Group_18-2" data-name="Group 18" clip-path="url(#clip-path)">
      <path id="Stroke_16" data-name="Stroke 16" d="M32.844,0,0,29.734" transform="translate(-13.376 -9.822)" fill="none" stroke="#272626" stroke-linejoin="round" stroke-miterlimit="10" stroke-width="0.51"/>
    </g>
  </g>
  <g id="Group_21" data-name="Group 21" transform="translate(12 8)">
    <path id="Clip_20-2" data-name="Clip 20" d="M6.369,0A9.673,9.673,0,0,0,2.359.82h0A4,4,0,0,0,.081,3.339h0A1.9,1.9,0,0,0,.818,5.446h0a2.986,2.986,0,0,0,1.79.629h0c.616.031,1.234.01,1.851.035h0A4.938,4.938,0,0,1,7.673,7.391h0a5.136,5.136,0,0,0,1.484.96h0a2.015,2.015,0,0,0,2.581-.6h0a3.763,3.763,0,0,0,.872-2.315h0a4.52,4.52,0,0,0-.894-3.02h0A6.167,6.167,0,0,0,8.285.232h0A7.214,7.214,0,0,0,6.4,0H6.369" transform="translate(0.289 0.273)" fill="none"/>
    <g id="Group_21-2" data-name="Group 21" clip-path="url(#clip-path)">
      <path id="Stroke_19" data-name="Stroke 19" d="M32.844,0,0,29.734" transform="translate(-12.553 -9.077)" fill="none" stroke="#272626" stroke-linejoin="round" stroke-miterlimit="10" stroke-width="0.51"/>
    </g>
  </g>
  <g id="Group_24" data-name="Group 24" transform="translate(12 8)">
    <path id="Clip_23-2" data-name="Clip 23" d="M6.369,0A9.673,9.673,0,0,0,2.359.82h0A4,4,0,0,0,.081,3.339h0A1.9,1.9,0,0,0,.818,5.446h0a2.986,2.986,0,0,0,1.79.629h0c.616.031,1.234.01,1.851.035h0A4.938,4.938,0,0,1,7.673,7.391h0a5.136,5.136,0,0,0,1.484.96h0a2.015,2.015,0,0,0,2.581-.6h0a3.763,3.763,0,0,0,.872-2.315h0a4.52,4.52,0,0,0-.894-3.02h0A6.167,6.167,0,0,0,8.285.232h0A7.214,7.214,0,0,0,6.4,0H6.369" transform="translate(0.289 0.273)" fill="none"/>
    <g id="Group_24-2" data-name="Group 24" clip-path="url(#clip-path)">
      <path id="Stroke_22" data-name="Stroke 22" d="M32.844,0,0,29.734" transform="translate(-11.73 -8.331)" fill="none" stroke="#272626" stroke-linejoin="round" stroke-miterlimit="10" stroke-width="0.51"/>
    </g>
  </g>
  <g id="Group_27" data-name="Group 27" transform="translate(12 8)">
    <path id="Clip_26-2" data-name="Clip 26" d="M6.369,0A9.673,9.673,0,0,0,2.359.82h0A4,4,0,0,0,.081,3.339h0A1.9,1.9,0,0,0,.818,5.446h0a2.986,2.986,0,0,0,1.79.629h0c.616.031,1.234.01,1.851.035h0A4.938,4.938,0,0,1,7.673,7.391h0a5.136,5.136,0,0,0,1.484.96h0a2.015,2.015,0,0,0,2.581-.6h0a3.763,3.763,0,0,0,.872-2.315h0a4.52,4.52,0,0,0-.894-3.02h0A6.167,6.167,0,0,0,8.285.232h0A7.214,7.214,0,0,0,6.4,0H6.369" transform="translate(0.289 0.273)" fill="none"/>
    <g id="Group_27-2" data-name="Group 27" clip-path="url(#clip-path)">
      <path id="Stroke_25" data-name="Stroke 25" d="M32.843,0,0,29.734" transform="translate(-10.906 -7.586)" fill="none" stroke="#272626" stroke-linejoin="round" stroke-miterlimit="10" stroke-width="0.51"/>
    </g>
  </g>
  <g id="Group_30" data-name="Group 30" transform="translate(12 8)">
    <path id="Clip_29-2" data-name="Clip 29" d="M6.369,0A9.673,9.673,0,0,0,2.359.82h0A4,4,0,0,0,.081,3.339h0A1.9,1.9,0,0,0,.818,5.446h0a2.986,2.986,0,0,0,1.79.629h0c.616.031,1.234.01,1.851.035h0A4.938,4.938,0,0,1,7.673,7.391h0a5.136,5.136,0,0,0,1.484.96h0a2.015,2.015,0,0,0,2.581-.6h0a3.763,3.763,0,0,0,.872-2.315h0a4.52,4.52,0,0,0-.894-3.02h0A6.167,6.167,0,0,0,8.285.232h0A7.214,7.214,0,0,0,6.4,0H6.369" transform="translate(0.289 0.273)" fill="none"/>
    <g id="Group_30-2" data-name="Group 30" clip-path="url(#clip-path)">
      <path id="Stroke_28" data-name="Stroke 28" d="M32.844,0,0,29.734" transform="translate(-10.083 -6.84)" fill="none" stroke="#272626" stroke-linejoin="round" stroke-miterlimit="10" stroke-width="0.51"/>
    </g>
  </g>
  <g id="Group_33" data-name="Group 33" transform="translate(12 8)">
    <path id="Clip_32-2" data-name="Clip 32" d="M6.369,0A9.673,9.673,0,0,0,2.359.82h0A4,4,0,0,0,.081,3.339h0A1.9,1.9,0,0,0,.818,5.446h0a2.986,2.986,0,0,0,1.79.629h0c.616.031,1.234.01,1.851.035h0A4.938,4.938,0,0,1,7.673,7.391h0a5.136,5.136,0,0,0,1.484.96h0a2.015,2.015,0,0,0,2.581-.6h0a3.763,3.763,0,0,0,.872-2.315h0a4.52,4.52,0,0,0-.894-3.02h0A6.167,6.167,0,0,0,8.285.232h0A7.214,7.214,0,0,0,6.4,0H6.369" transform="translate(0.289 0.273)" fill="none"/>
    <g id="Group_33-2" data-name="Group 33" clip-path="url(#clip-path)">
      <path id="Stroke_31" data-name="Stroke 31" d="M32.844,0,0,29.734" transform="translate(-9.259 -6.095)" fill="none" stroke="#272626" stroke-linejoin="round" stroke-miterlimit="10" stroke-width="0.51"/>
    </g>
  </g>
  <g id="Group_36" data-name="Group 36" transform="translate(12 8)">
    <path id="Clip_35-2" data-name="Clip 35" d="M6.369,0A9.673,9.673,0,0,0,2.359.82h0A4,4,0,0,0,.081,3.339h0A1.9,1.9,0,0,0,.818,5.446h0a2.986,2.986,0,0,0,1.79.629h0c.616.031,1.234.01,1.851.035h0A4.938,4.938,0,0,1,7.673,7.391h0a5.136,5.136,0,0,0,1.484.96h0a2.015,2.015,0,0,0,2.581-.6h0a3.763,3.763,0,0,0,.872-2.315h0a4.52,4.52,0,0,0-.894-3.02h0A6.167,6.167,0,0,0,8.285.232h0A7.214,7.214,0,0,0,6.4,0H6.369" transform="translate(0.289 0.273)" fill="none"/>
    <g id="Group_36-2" data-name="Group 36" clip-path="url(#clip-path)">
      <path id="Stroke_34" data-name="Stroke 34" d="M32.843,0,0,29.734" transform="translate(-8.436 -5.35)" fill="none" stroke="#272626" stroke-linejoin="round" stroke-miterlimit="10" stroke-width="0.51"/>
    </g>
  </g>
  <g id="Group_39" data-name="Group 39" transform="translate(12 8)">
    <path id="Clip_38-2" data-name="Clip 38" d="M6.369,0A9.673,9.673,0,0,0,2.359.82h0A4,4,0,0,0,.081,3.339h0A1.9,1.9,0,0,0,.818,5.446h0a2.986,2.986,0,0,0,1.79.629h0c.616.031,1.234.01,1.851.035h0A4.938,4.938,0,0,1,7.673,7.391h0a5.136,5.136,0,0,0,1.484.96h0a2.015,2.015,0,0,0,2.581-.6h0a3.763,3.763,0,0,0,.872-2.315h0a4.52,4.52,0,0,0-.894-3.02h0A6.167,6.167,0,0,0,8.285.232h0A7.214,7.214,0,0,0,6.4,0H6.369" transform="translate(0.289 0.273)" fill="none"/>
    <g id="Group_39-2" data-name="Group 39" clip-path="url(#clip-path)">
      <path id="Stroke_37" data-name="Stroke 37" d="M32.844,0,0,29.734" transform="translate(-7.613 -4.604)" fill="none" stroke="#272626" stroke-linejoin="round" stroke-miterlimit="10" stroke-width="0.51"/>
    </g>
  </g>
  <g id="Group_42" data-name="Group 42" transform="translate(12 8)">
    <path id="Clip_41-2" data-name="Clip 41" d="M6.369,0A9.673,9.673,0,0,0,2.359.82h0A4,4,0,0,0,.081,3.339h0A1.9,1.9,0,0,0,.818,5.446h0a2.986,2.986,0,0,0,1.79.629h0c.616.031,1.234.01,1.851.035h0A4.938,4.938,0,0,1,7.673,7.391h0a5.136,5.136,0,0,0,1.484.96h0a2.015,2.015,0,0,0,2.581-.6h0a3.763,3.763,0,0,0,.872-2.315h0a4.52,4.52,0,0,0-.894-3.02h0A6.167,6.167,0,0,0,8.285.232h0A7.214,7.214,0,0,0,6.4,0H6.369" transform="translate(0.289 0.273)" fill="none"/>
    <g id="Group_42-2" data-name="Group 42" clip-path="url(#clip-path)">
      <path id="Stroke_40" data-name="Stroke 40" d="M32.844,0,0,29.734" transform="translate(-6.789 -3.859)" fill="none" stroke="#272626" stroke-linejoin="round" stroke-miterlimit="10" stroke-width="0.52"/>
    </g>
  </g>
  <path id="Fill_5" data-name="Fill 5" d="M17.5,35A17.5,17.5,0,0,1,5.127,5.12,17.506,17.506,0,0,1,29.882,29.88,17.387,17.387,0,0,1,17.5,35ZM17.5.875A16.626,16.626,0,0,0,5.753,29.255a16.622,16.622,0,0,0,23.5-23.511A16.513,16.513,0,0,0,17.5.875Z" fill="#272626"/>
  <path id="Stroke_53" data-name="Stroke 53" d="M6.976,23c-.044,0-.088,0-.123-.007-.181-1.1-.358-2.186-.536-3.268a1.394,1.394,0,0,0-.035-.15C6.2,19.262,6,19.16,5.721,19.3a3.463,3.463,0,0,1-1.286.409,5.746,5.746,0,0,1-1.255,0,1.127,1.127,0,0,1-.911-1.433c.045-.214.1-.425.151-.64a.823.823,0,0,0-.453-.981.552.552,0,0,1-.1-.057c-.284-.235-.442-.6,0-.905.2-.134.2-.2.007-.345a1.245,1.245,0,0,0-.251-.137.455.455,0,0,1-.3-.631c.08-.3.16-.594.238-.886-.337-.061-.655-.116-.973-.178a1.349,1.349,0,0,1-.273-.084.477.477,0,0,1-.3-.581,1.56,1.56,0,0,1,.174-.426c.473-.783.957-1.56,1.434-2.34A1.887,1.887,0,0,0,1.81,8.718c-.074-.4-.248-.779-.3-1.178a5.926,5.926,0,0,1,1.454-4.92A7.8,7.8,0,0,1,6.8.43a12,12,0,0,1,4.031-.4,11.32,11.32,0,0,1,3.612.758,7.259,7.259,0,0,1,3.037,2.161,7.058,7.058,0,0,1,1.391,3.176,8.184,8.184,0,0,1-1.791,6.65,12.706,12.706,0,0,1-.9,1.007,4.222,4.222,0,0,0-1.16,2.08,4.063,4.063,0,0,0,.04,1.312q.162,1.327.33,2.653c.031.25.071.5.093.75a.444.444,0,0,1-.054.248" transform="translate(8 6)" fill="none" stroke="#272626" stroke-linejoin="round" stroke-miterlimit="10" stroke-width="0.88"/>
</svg>
