<svg id="Heart_Icon" data-name="Heart Icon" xmlns="http://www.w3.org/2000/svg" width="35" height="35" viewBox="0 0 35 35">
  <path id="Fill_5" data-name="Fill 5" d="M17.5,35A17.5,17.5,0,0,1,5.127,5.12,17.506,17.506,0,0,1,29.882,29.88,17.387,17.387,0,0,1,17.5,35ZM17.5.875A16.626,16.626,0,0,0,5.753,29.255a16.622,16.622,0,0,0,23.5-23.511A16.513,16.513,0,0,0,17.5.875Z" fill="#272626"/>
  <path id="Stroke_1" data-name="Stroke 1" d="M8.392,1.3A4.566,4.566,0,0,0,5.1,0,4.9,4.9,0,0,0,1.486,1.484,5.4,5.4,0,0,0,.014,5.094C-.423,10.9,9.26,18.078,10.5,18c.744.079,10.916-6.855,10.486-12.905a5.37,5.37,0,0,0-1.473-3.609A4.876,4.876,0,0,0,15.917,0,4.6,4.6,0,0,0,12.6,1.3,8.564,8.564,0,0,0,10.509,5.2,8.8,8.8,0,0,0,8.392,1.3Z" transform="translate(7 10)" fill="none" stroke="#272626" stroke-linejoin="round" stroke-miterlimit="10" stroke-width="1"/>
</svg>
