<svg id="Stress_Icon" data-name="Stress Icon" xmlns="http://www.w3.org/2000/svg" width="35" height="35" viewBox="0 0 35 35">
  <path id="Fill_5" data-name="Fill 5" d="M17.5,35A17.5,17.5,0,0,1,5.127,5.12,17.506,17.506,0,0,1,29.882,29.88,17.387,17.387,0,0,1,17.5,35ZM17.5.875A16.626,16.626,0,0,0,5.753,29.255a16.622,16.622,0,0,0,23.5-23.511A16.513,16.513,0,0,0,17.5.875Z" fill="#272626"/>
  <path id="Stroke_3" data-name="Stroke 3" d="M6.422,15.2,0,15.382l5.3-3.631L0,8.12,6.422,8.3,4.269,2.244,9.36,6.163,11.176,0l1.816,6.163,5.091-3.919L15.929,8.3l6.422-.178-5.3,3.631,5.3,3.631L15.929,15.2" transform="translate(6.324 8)" fill="none" stroke="#272626" stroke-linejoin="round" stroke-miterlimit="10" stroke-width="0.7"/>
</svg>
