<svg id="Immunity_Icon" data-name="Immunity Icon" xmlns="http://www.w3.org/2000/svg" width="35" height="35" viewBox="0 0 35 35">
  <path id="Fill_5" data-name="Fill 5" d="M17.5,35A17.5,17.5,0,0,1,5.127,5.12,17.506,17.506,0,0,1,29.882,29.88,17.387,17.387,0,0,1,17.5,35ZM17.5.875A16.626,16.626,0,0,0,5.753,29.255a16.622,16.622,0,0,0,23.5-23.511A16.513,16.513,0,0,0,17.5.875Z" fill="#272626"/>
  <path id="Stroke_55" data-name="Stroke 55" d="M7.751,18.74c3.142,0,6.825-4.3,7.5-7.9a33.243,33.243,0,0,0,.14-8.349L7.751,0,.113,2.5a50.774,50.774,0,0,0,.14,8.349C.708,14.443,4.934,18.74,7.751,18.74Z" transform="translate(10 9)" fill="none" stroke="#272626" stroke-linecap="round" stroke-linejoin="round" stroke-miterlimit="10" stroke-width="0.88"/>
</svg>
