<svg id="Joints_Icon" data-name="Joints Icon" xmlns="http://www.w3.org/2000/svg" xmlns:xlink="http://www.w3.org/1999/xlink" width="35" height="35" viewBox="0 0 35 35">
  <defs>
    <clipPath id="clip-path">
      <circle id="Mask" cx="17" cy="17" r="17" fill="none"/>
    </clipPath>
  </defs>
  <path id="Fill_5" data-name="Fill 5" d="M17.5,35A17.5,17.5,0,0,1,5.127,5.12,17.506,17.506,0,0,1,29.882,29.88,17.387,17.387,0,0,1,17.5,35ZM17.5.875A16.626,16.626,0,0,0,5.753,29.255a16.622,16.622,0,0,0,23.5-23.511A16.513,16.513,0,0,0,17.5.875Z" fill="#272626"/>
  <g id="Group_12" data-name="Group 12">
    <circle id="Mask-2" data-name="Mask" cx="17" cy="17" r="17" fill="none"/>
    <g id="Group_12-2" data-name="Group 12" clip-path="url(#clip-path)">
      <g id="Group_2" data-name="Group 2" transform="translate(-6 -4)">
        <path id="Fill_4" data-name="Fill 4" d="M5.314,23.5a2.915,2.915,0,0,1-2.8-2.291c-.011-.051-.024-.1-.036-.15l-.009-.034A2.938,2.938,0,0,1,.313,19.469,2.962,2.962,0,0,1,.9,16.029,3.83,3.83,0,0,1,3,14.956a10.722,10.722,0,0,0,4.24-1.908A24.667,24.667,0,0,0,11.31,9.517a15.908,15.908,0,0,0,3.124-4.5,6.382,6.382,0,0,0,.468-1.9A3.506,3.506,0,0,1,16.765.361,2.69,2.69,0,0,1,18.116,0a2.9,2.9,0,0,1,2.824,2.192c.041.175.071.3.294.349A2.873,2.873,0,0,1,23,6.928,3.284,3.284,0,0,1,20.777,8.47a11.318,11.318,0,0,0-4.737,2.111,25.142,25.142,0,0,0-4.187,3.731A15.669,15.669,0,0,0,9.077,18.4a6.629,6.629,0,0,0-.508,1.972,3.457,3.457,0,0,1-2.149,2.9A2.738,2.738,0,0,1,5.314,23.5ZM18.155.647A2.162,2.162,0,0,0,17.134.9a2.793,2.793,0,0,0-1.586,2.271,7.382,7.382,0,0,1-.834,2.776,18.021,18.021,0,0,1-2.649,3.719A25.075,25.075,0,0,1,7.9,13.385,11.945,11.945,0,0,1,2.985,15.62,2.953,2.953,0,0,0,1.179,16.7a2.23,2.23,0,0,0-.5,1.862,2.125,2.125,0,0,0,1.069,1.495,4.428,4.428,0,0,0,.878.326c.145.043.295.087.444.138,0,.02,0,.081.008.142a2.29,2.29,0,0,0,2.231,2.189,2.218,2.218,0,0,0,1.046-.267,2.783,2.783,0,0,0,1.581-2.3,7.148,7.148,0,0,1,.859-2.795,17.648,17.648,0,0,1,2.536-3.565,25.033,25.033,0,0,1,4.3-3.849A11.627,11.627,0,0,1,20.372,7.9a3.207,3.207,0,0,0,1.921-1.1,2.277,2.277,0,0,0-.047-2.97,2.488,2.488,0,0,0-1.832-.759c-.008-.1-.015-.194-.023-.283A2.273,2.273,0,0,0,18.155.647Z" transform="translate(22.11 0.455)" fill="#272626" stroke="#272626" stroke-miterlimit="10" stroke-width="0.2"/>
        <path id="Fill_7" data-name="Fill 7" d="M5.314,23.5a2.915,2.915,0,0,1-2.8-2.291c-.01-.046-.021-.091-.033-.135l-.012-.048A2.938,2.938,0,0,1,.313,19.469,2.962,2.962,0,0,1,.9,16.029,3.835,3.835,0,0,1,3,14.956a10.722,10.722,0,0,0,4.24-1.908A24.628,24.628,0,0,0,11.31,9.517a15.9,15.9,0,0,0,3.123-4.5,6.357,6.357,0,0,0,.469-1.9A3.506,3.506,0,0,1,16.765.361,2.69,2.69,0,0,1,18.116,0a2.9,2.9,0,0,1,2.824,2.192c.041.175.071.3.294.349A2.873,2.873,0,0,1,23,6.928,3.284,3.284,0,0,1,20.777,8.47a11.318,11.318,0,0,0-4.737,2.111,25.142,25.142,0,0,0-4.187,3.731A15.669,15.669,0,0,0,9.077,18.4a6.606,6.606,0,0,0-.508,1.972,3.459,3.459,0,0,1-2.149,2.9A2.738,2.738,0,0,1,5.314,23.5ZM18.155.647A2.162,2.162,0,0,0,17.134.9a2.793,2.793,0,0,0-1.586,2.271,7.382,7.382,0,0,1-.834,2.776,18.021,18.021,0,0,1-2.649,3.719A25.075,25.075,0,0,1,7.9,13.385,11.945,11.945,0,0,1,2.985,15.62,2.953,2.953,0,0,0,1.179,16.7a2.23,2.23,0,0,0-.5,1.862,2.125,2.125,0,0,0,1.068,1.495,4.447,4.447,0,0,0,.878.326c.145.043.295.087.444.138,0,.02,0,.081.008.142a2.29,2.29,0,0,0,2.231,2.189,2.218,2.218,0,0,0,1.046-.267,2.783,2.783,0,0,0,1.581-2.3,7.132,7.132,0,0,1,.859-2.795,17.611,17.611,0,0,1,2.536-3.565,25.016,25.016,0,0,1,4.3-3.849A11.639,11.639,0,0,1,20.372,7.9a3.211,3.211,0,0,0,1.921-1.1,2.277,2.277,0,0,0-.047-2.97,2.491,2.491,0,0,0-1.832-.759c-.008-.1-.015-.194-.023-.283A2.273,2.273,0,0,0,18.155.647Z" transform="translate(0.415 21.499)" fill="#272626" stroke="#272626" stroke-miterlimit="10" stroke-width="0.2"/>
      </g>
    </g>
  </g>
</svg>
