<svg id="Layer_1" data-name="Layer 1" xmlns="http://www.w3.org/2000/svg" xmlns:xlink="http://www.w3.org/1999/xlink" viewBox="0 0 35 35"><defs><style>.cls-1,.cls-5,.cls-6,.cls-7{fill:none;}.cls-2{clip-path:url(#clip-path);}.cls-3{fill:#262222;}.cls-4{clip-path:url(#clip-path-2);}.cls-5,.cls-6,.cls-7{stroke:#262222;stroke-linecap:round;stroke-linejoin:round;}.cls-5{stroke-width:0.86px;}.cls-6{stroke-width:0.74px;}.cls-7{stroke-width:0.74px;}</style><clipPath id="clip-path"><path class="cls-1" d="M5.83,29.05A16.32,16.32,0,0,1,5.83,6,16.33,16.33,0,0,1,33.71,17.5,16.33,16.33,0,0,1,5.83,29.05M17.26.3A17.21,17.21,0,1,0,34.57,17.57v-.14A17.17,17.17,0,0,0,17.49.3Z"/></clipPath><clipPath id="clip-path-2"><rect class="cls-1" x="7.84" y="4.57" width="19.06" height="24.01"/></clipPath></defs><title>icon_nail_35x35</title><g class="cls-2"><rect class="cls-3" x="-4.74" y="-4.61" width="44.23" height="44.23"/></g><g class="cls-4"><path class="cls-5" d="M11.92,12.11c.13-.19.17-6.4,5.44-6.53s5.45,6.15,5.45,6.15v8s-.51,3.43-3.67,4.19-4.69-.38-5.38-.88a4.52,4.52,0,0,1-1.84-3.31Z"/><path class="cls-6" d="M22.81,12.09a5.77,5.77,0,0,1,2.34,4.41c.19,3.05,0,11.78,0,11.78"/><path class="cls-7" d="M11.92,12.09A5.78,5.78,0,0,0,9.6,16.5c-.19,3.05,0,11.78,0,11.78"/><path class="cls-5" d="M12.26,10.18A7.21,7.21,0,0,1,17.37,7.5c3,0,5.21,2.68,5.21,2.68"/></g></svg>