<svg id="Sleep_Icon" data-name="Sleep Icon" xmlns="http://www.w3.org/2000/svg" width="35" height="35" viewBox="0 0 35 35">
  <path id="Fill_5" data-name="Fill 5" d="M17.5,35A17.5,17.5,0,0,1,5.127,5.12,17.506,17.506,0,0,1,29.882,29.88,17.387,17.387,0,0,1,17.5,35ZM17.5.875A16.626,16.626,0,0,0,5.753,29.255a16.622,16.622,0,0,0,23.5-23.511A16.513,16.513,0,0,0,17.5.875Z" fill="#272626"/>
  <path id="Stroke_5" data-name="Stroke 5" d="M6.958,10.33A9.3,9.3,0,0,1,15,1.117a10.33,10.33,0,1,0,0,18.427A9.3,9.3,0,0,1,6.958,10.33Z" transform="translate(9 7)" fill="none" stroke="#272626" stroke-linecap="round" stroke-linejoin="round" stroke-miterlimit="10" stroke-width="0.88"/>
</svg>
