<svg id="Skin_Icon" data-name="Skin Icon" xmlns="http://www.w3.org/2000/svg" width="35" height="35" viewBox="0 0 35 35">
  <path id="Fill_5" data-name="Fill 5" d="M17.5,35A17.5,17.5,0,0,1,5.127,5.12,17.506,17.506,0,0,1,29.882,29.88,17.387,17.387,0,0,1,17.5,35ZM17.5.875A16.626,16.626,0,0,0,5.753,29.255a16.622,16.622,0,0,0,23.5-23.511A16.513,16.513,0,0,0,17.5.875Z" fill="#272626"/>
  <path id="Stroke_1" data-name="Stroke 1" d="M18.27,5.463c.875,1.782.642,5.334-.164,9.526C17.318,19.1,13,24,9.315,24c-3.3,0-8.256-4.9-8.791-9.01-.551-4.231-.762-6.4-.164-9.243S4.192,0,9.37,0C14.947,0,16.978,2.831,18.27,5.463Z" transform="translate(8 6)" fill="none" stroke="#272626" stroke-linecap="round" stroke-linejoin="round" stroke-miterlimit="10" stroke-width="0.88"/>
  <path id="Fill_3" data-name="Fill 3" d="M3.236,3.356a3.928,3.928,0,0,1-1.247-.177A2.277,2.277,0,0,1,.954,2.5C.833,2.353.718,2.2.606,2.051L.52,1.937A.929.929,0,0,0,.14,1.644a.3.3,0,0,1-.112-.081A.127.127,0,0,1,.05,1.384l0,0a.166.166,0,0,1,.039-.028,6.621,6.621,0,0,0,1.2-.895A2.8,2.8,0,0,1,1.654.147.749.749,0,0,1,2.114,0a1.145,1.145,0,0,1,.214.022c.1.019.208.047.309.074.068.018.138.036.207.052A1.6,1.6,0,0,0,3.208.19,1.525,1.525,0,0,0,3.67.118,2.609,2.609,0,0,1,4.178.007,1,1,0,0,1,4.286,0a.794.794,0,0,1,.522.187A5.055,5.055,0,0,1,5.28.641a5.07,5.07,0,0,0,1.01.7.151.151,0,0,1,0,.292,1.01,1.01,0,0,0-.47.39,4.174,4.174,0,0,1-.5.619,2.468,2.468,0,0,1-1.2.62A4.442,4.442,0,0,1,3.236,3.356ZM.743,1.735.727,1.75l.143.175c.132.162.268.33.41.489A1.665,1.665,0,0,0,1.8,2.79a2.842,2.842,0,0,0,1.1.268c.1.007.2.01.3.01a4.3,4.3,0,0,0,.637-.047,2.425,2.425,0,0,0,.885-.3,2.267,2.267,0,0,0,.66-.606c.061-.079.12-.16.181-.242l0-.006.1-.134H5.645l-.039,0-.294.039c-.221.03-.447.06-.671.083-.349.037-.712.068-1.081.093-.12.008-.246.012-.374.012-.213,0-.437-.011-.687-.034C2.113,1.9,1.77,1.862,1.45,1.826c-.161-.017-.325-.039-.483-.061ZM2.115.288A.49.49,0,0,0,1.791.4a3.909,3.909,0,0,0-.349.315,2.533,2.533,0,0,1-.488.392,3.694,3.694,0,0,0-.4.3l.18.029c.129.022.251.042.374.055.5.056,1.025.114,1.542.162.174.016.352.024.545.024A11.749,11.749,0,0,0,4.425,1.6c.243-.026.5-.056.763-.091.142-.019.28-.04.426-.063l.234-.036-.014-.015-.008-.009C5.7,1.249,5.283.924,4.98.687,4.86.594,4.758.513,4.694.461A.669.669,0,0,0,4.269.289.6.6,0,0,0,4.145.3c-.131.027-.266.056-.4.094A1.933,1.933,0,0,1,3.2.477a1.91,1.91,0,0,1-.432-.05L2.575.379C2.466.351,2.353.323,2.24.3A.645.645,0,0,0,2.115.288Z" transform="translate(14.21 22.602)" fill="#272626" stroke="#272626" stroke-miterlimit="10" stroke-width="0.28"/>
  <path id="Fill_7" data-name="Fill 7" d="M.684,1.333a.69.69,0,0,1-.484-.2A.655.655,0,0,1,.2.2a.7.7,0,0,1,.969,0,.655.655,0,0,1,0,.942A.692.692,0,0,1,.684,1.333ZM.684.3A.38.38,0,0,0,.415.4a.363.363,0,0,0,0,.525.38.38,0,0,0,.269.109A.384.384,0,0,0,.954.929.363.363,0,0,0,.954.4.384.384,0,0,0,.684.3Z" transform="translate(10.247 18.709)" fill="#272626" stroke="#272626" stroke-miterlimit="10" stroke-width="0.18"/>
  <path id="Fill_9" data-name="Fill 9" d="M.685,1.333a.69.69,0,0,1-.484-.2A.653.653,0,0,1,.2.2a.7.7,0,0,1,.968,0,.655.655,0,0,1,0,.942A.69.69,0,0,1,.685,1.333ZM.685.3A.384.384,0,0,0,.415.4a.365.365,0,0,0,0,.525.384.384,0,0,0,.27.109A.38.38,0,0,0,.954.929.363.363,0,0,0,.954.4.38.38,0,0,0,.685.3Z" transform="translate(12.801 19.859)" fill="#272626" stroke="#272626" stroke-miterlimit="10" stroke-width="0.18"/>
  <path id="Fill_11" data-name="Fill 11" d="M.684,1.333a.69.69,0,0,1-.484-.2A.655.655,0,0,1,.2.2a.7.7,0,0,1,.969,0,.655.655,0,0,1,0,.942A.692.692,0,0,1,.684,1.333ZM.684.3A.38.38,0,0,0,.415.4a.363.363,0,0,0,0,.525.38.38,0,0,0,.269.109A.384.384,0,0,0,.954.929.363.363,0,0,0,.954.4.384.384,0,0,0,.684.3Z" transform="translate(10.629 21.281)" fill="#272626" stroke="#272626" stroke-miterlimit="10" stroke-width="0.18"/>
</svg>
