<svg id="Bones_Icon" data-name="Bones Icon" xmlns="http://www.w3.org/2000/svg" width="35" height="35" viewBox="0 0 35 35">
  <path id="Fill_5" data-name="Fill 5" d="M17.5,35A17.5,17.5,0,0,1,5.127,5.12,17.506,17.506,0,0,1,29.882,29.88,17.387,17.387,0,0,1,17.5,35ZM17.5.875A16.626,16.626,0,0,0,5.753,29.255a16.622,16.622,0,0,0,23.5-23.511A16.513,16.513,0,0,0,17.5.875Z" fill="#272626"/>
  <path id="Fill_1" data-name="Fill 1" d="M5.2,23a2.854,2.854,0,0,1-2.745-2.242c-.01-.049-.023-.1-.035-.144l-.009-.035A2.878,2.878,0,0,1,.307,19.054a2.9,2.9,0,0,1,.574-3.367,3.759,3.759,0,0,1,2.056-1.05A10.5,10.5,0,0,0,7.09,12.77a24.156,24.156,0,0,0,3.989-3.455,15.57,15.57,0,0,0,3.059-4.4A6.209,6.209,0,0,0,14.6,3.052a3.433,3.433,0,0,1,1.825-2.7A2.638,2.638,0,0,1,17.745,0a2.837,2.837,0,0,1,2.766,2.146c.04.171.069.295.288.342a2.81,2.81,0,0,1,1.733,4.293,3.208,3.208,0,0,1-2.179,1.508,11.087,11.087,0,0,0-4.639,2.066,24.6,24.6,0,0,0-4.1,3.651,15.3,15.3,0,0,0-2.72,4,6.454,6.454,0,0,0-.5,1.93A3.382,3.382,0,0,1,6.289,22.77,2.681,2.681,0,0,1,5.2,23ZM17.783.633a2.119,2.119,0,0,0-1,.251,2.729,2.729,0,0,0-1.553,2.222,7.212,7.212,0,0,1-.818,2.716,17.376,17.376,0,0,1-2.595,3.64A24.557,24.557,0,0,1,7.741,13.1a11.7,11.7,0,0,1-4.817,2.187,2.9,2.9,0,0,0-1.769,1.056,2.181,2.181,0,0,0-.49,1.822,2.08,2.08,0,0,0,1.046,1.464,4.356,4.356,0,0,0,.861.319c.142.042.289.085.434.135v0h0c0,.017,0,.075.007.134A2.242,2.242,0,0,0,5.2,22.363,2.174,2.174,0,0,0,6.224,22.1a2.724,2.724,0,0,0,1.548-2.255,6.978,6.978,0,0,1,.842-2.735A17.253,17.253,0,0,1,11.1,13.622a24.515,24.515,0,0,1,4.212-3.766,11.38,11.38,0,0,1,4.645-2.12,3.143,3.143,0,0,0,1.882-1.074,2.227,2.227,0,0,0-.046-2.906A2.443,2.443,0,0,0,20,3.013l-.014-.178-.008-.1A2.226,2.226,0,0,0,17.783.633Z" transform="translate(6 6)" fill="#272626" stroke="#272626" stroke-miterlimit="10" stroke-width="0.2"/>
</svg>
