<svg id="Hair_Icon" data-name="Hair Icon" xmlns="http://www.w3.org/2000/svg" width="35" height="35" viewBox="0 0 35 35">
  <path id="Fill_5" data-name="Fill 5" d="M17.5,35A17.5,17.5,0,0,1,5.127,5.12,17.506,17.506,0,0,1,29.882,29.88,17.387,17.387,0,0,1,17.5,35ZM17.5.875A16.626,16.626,0,0,0,5.753,29.255a16.622,16.622,0,0,0,23.5-23.511A16.513,16.513,0,0,0,17.5.875Z" fill="#272626"/>
  <path id="Fill_1" data-name="Fill 1" d="M14.533,22a.407.407,0,0,1-.374-.433V.433a.378.378,0,1,1,.749,0V21.567A.407.407,0,0,1,14.533,22Zm-2.8,0a.421.421,0,0,1-.406-.433V.433a.407.407,0,1,1,.812,0V21.567A.421.421,0,0,1,11.732,22ZM8.87,22a.407.407,0,0,1-.374-.433V.433a.378.378,0,1,1,.749,0V21.567A.407.407,0,0,1,8.87,22ZM6.084,22a.427.427,0,0,1-.42-.433V.433a.421.421,0,1,1,.842,0V21.567A.428.428,0,0,1,6.084,22ZM3.206,22a.407.407,0,0,1-.374-.433V.433A.407.407,0,0,1,3.206,0,.407.407,0,0,1,3.58.433V21.567A.407.407,0,0,1,3.206,22ZM.42,22A.427.427,0,0,1,0,21.567V.433A.427.427,0,0,1,.42,0,.428.428,0,0,1,.842.433V21.567A.428.428,0,0,1,.42,22Z" transform="translate(10 7)" fill="#272626"/>
</svg>
