<?xml version="1.0" standalone="no"?>
<!DOCTYPE svg PUBLIC "-//W3C//DTD SVG 20010904//EN"
 "http://www.w3.org/TR/2001/REC-SVG-20010904/DTD/svg10.dtd">
<svg version="1.0" xmlns="http://www.w3.org/2000/svg"
 width="90.000000pt" height="90.000000pt" viewBox="0 0 90.000000 90.000000"
 preserveAspectRatio="xMidYMid meet">
<metadata>
Created by potrace 1.16, written by Peter Selinger 2001-2019
</metadata>
<g transform="translate(0.000000,90.000000) scale(0.100000,-0.100000)"
fill="#000000" stroke="none">
<path d="M329 886 c-279 -78 -413 -398 -273 -657 165 -304 623 -304 788 0 167
308 -51 674 -399 670 -38 0 -91 -7 -116 -13z m203 -27 c215 -45 368 -266 329
-476 -41 -222 -263 -384 -471 -345 -182 34 -318 169 -352 350 -37 199 111 418
317 468 65 16 112 17 177 3z"/>
<path d="M343 649 c-110 -35 -109 -34 -100 -180 7 -119 27 -170 90 -233 60
-60 110 -75 171 -52 50 19 103 73 138 138 20 38 23 57 23 168 l0 125 -90 32
c-49 17 -101 32 -115 32 -14 0 -67 -13 -117 -30z m216 -34 l84 -27 -5 -102
c-5 -108 -20 -151 -74 -215 -73 -87 -152 -79 -234 24 -42 52 -52 95 -48 205
l3 94 85 27 c47 15 90 26 95 24 6 -1 48 -15 94 -30z"/>
</g>
</svg>
