<?xml version="1.0" standalone="no"?>
<!DOCTYPE svg PUBLIC "-//W3C//DTD SVG 20010904//EN"
 "http://www.w3.org/TR/2001/REC-SVG-20010904/DTD/svg10.dtd">
<svg version="1.0" xmlns="http://www.w3.org/2000/svg"
 width="90.000000pt" height="90.000000pt" viewBox="0 0 90.000000 90.000000"
 preserveAspectRatio="xMidYMid meet">
<metadata>
Created by potrace 1.16, written by Peter Selinger 2001-2019
</metadata>
<g transform="translate(0.000000,90.000000) scale(0.100000,-0.100000)"
fill="#000000" stroke="none">
<path d="M362 889 c-207 -40 -352 -220 -352 -435 0 -134 40 -232 131 -322 94
-92 190 -126 338 -120 81 3 106 8 161 34 285 135 347 517 119 729 -111 103
-252 143 -397 114z m213 -45 c28 -7 70 -27 93 -43 l44 -29 -37 -36 c-58 -59
-115 -95 -171 -112 -54 -16 -77 -34 -89 -72 -7 -24 11 -82 26 -82 4 0 27 -19
49 -41 36 -36 45 -41 73 -35 42 8 72 44 80 94 10 59 113 192 150 192 14 0 55
-102 67 -167 30 -172 -71 -358 -236 -435 -118 -55 -268 -49 -377 17 l-38 22
61 47 c34 25 86 53 115 61 64 19 89 45 89 90 0 29 -9 44 -58 91 -52 50 -61 56
-89 50 -36 -7 -77 -48 -77 -77 0 -27 -43 -107 -83 -152 l-33 -39 -27 40 c-137
208 -53 493 179 599 95 43 178 49 289 17z m139 -180 c-54 -55 -104 -137 -104
-171 0 -28 -29 -63 -52 -63 -12 0 -42 22 -70 51 -46 47 -48 52 -35 72 8 12 37
29 65 39 60 19 123 61 178 116 35 36 41 39 55 26 15 -13 11 -20 -37 -70z
m-338 -273 c7 -13 22 -28 35 -35 27 -13 36 -50 19 -71 -6 -8 -36 -21 -65 -30
-32 -9 -81 -35 -119 -65 -50 -38 -67 -46 -75 -36 -8 9 0 25 31 62 44 52 77
117 78 148 0 53 73 74 96 27z"/>
</g>
</svg>
