<?xml version="1.0" standalone="no"?>
<!DOCTYPE svg PUBLIC "-//W3C//DTD SVG 20010904//EN"
 "http://www.w3.org/TR/2001/REC-SVG-20010904/DTD/svg10.dtd">
<svg version="1.0" xmlns="http://www.w3.org/2000/svg"
 width="90.000000pt" height="90.000000pt" viewBox="0 0 90.000000 90.000000"
 preserveAspectRatio="xMidYMid meet">
<metadata>
Created by potrace 1.16, written by Peter Selinger 2001-2019
</metadata>
<g transform="translate(0.000000,90.000000) scale(0.100000,-0.100000)"
fill="#000000" stroke="none">
<path d="M331 884 c-80 -21 -144 -60 -205 -124 -61 -64 -90 -114 -111 -197
-29 -109 -13 -234 42 -335 31 -58 123 -147 181 -177 134 -68 302 -66 434 6 58
31 147 123 177 181 66 130 66 294 0 424 -30 58 -119 150 -177 181 -101 55
-232 71 -341 41z m190 -24 c219 -41 377 -260 340 -471 -31 -181 -169 -319
-348 -350 -217 -38 -434 122 -474 348 -41 236 155 472 402 482 15 1 51 -4 80
-9z"/>
<path d="M543 645 c-16 -12 -17 -17 -5 -47 7 -18 14 -37 15 -41 2 -10 -232
-147 -250 -147 -7 0 -19 14 -28 30 -9 17 -23 30 -33 30 -25 -1 -52 -24 -52
-46 0 -11 -9 -25 -20 -32 -28 -17 -25 -34 17 -106 l36 -64 58 0 c44 0 62 4 75
19 16 18 16 22 2 52 l-16 33 131 73 c122 69 131 73 144 55 7 -10 13 -21 13
-25 0 -14 32 -19 53 -7 27 14 38 29 32 45 -2 7 5 17 15 23 28 15 25 33 -15
105 l-36 63 -59 0 c-33 0 -67 -6 -77 -13z"/>
</g>
</svg>
