<?xml version="1.0" standalone="no"?>
<!DOCTYPE svg PUBLIC "-//W3C//DTD SVG 20010904//EN"
 "http://www.w3.org/TR/2001/REC-SVG-20010904/DTD/svg10.dtd">
<svg version="1.0" xmlns="http://www.w3.org/2000/svg"
 width="74.000000pt" height="74.000000pt" viewBox="0 0 74.000000 74.000000"
 preserveAspectRatio="xMidYMid meet">

<g transform="translate(0.000000,74.000000) scale(0.100000,-0.100000)"
fill="#000000" stroke="none">
<path d="M233 699 c-71 -28 -155 -106 -190 -177 -25 -51 -28 -68 -28 -157 0
-82 4 -109 22 -147 30 -66 102 -139 170 -174 53 -26 67 -29 158 -29 89 0 106
3 157 28 74 36 150 119 178 195 31 83 26 205 -13 284 -35 72 -93 130 -165 165
-77 38 -210 44 -289 12z m250 -15 c87 -31 170 -115 203 -206 9 -24 16 -75 17
-113 1 -124 -73 -242 -188 -303 -45 -24 -61 -27 -150 -27 -115 0 -158 16 -233
89 -68 64 -95 125 -100 227 -4 78 -2 92 23 147 31 69 112 153 171 178 83 35
173 38 257 8z"/>
<path d="M298 597 c-30 -25 -48 -57 -48 -84 0 -11 -11 -34 -25 -53 -24 -33
-25 -38 -23 -179 l2 -146 5 147 c4 98 10 151 19 160 9 10 12 -1 12 -55 0 -37
6 -83 14 -102 36 -85 179 -87 219 -2 11 22 17 61 17 104 1 62 2 66 15 49 11
-15 15 -54 16 -160 1 -124 2 -134 11 -86 15 88 3 223 -26 273 -13 23 -27 57
-31 74 -15 75 -118 110 -177 60z m121 -8 c35 -21 37 -38 3 -20 -27 14 -88 14
-115 -1 -20 -10 -21 -10 -7 6 31 39 72 44 119 15z m-22 -30 c15 -6 38 -20 51
-31 20 -20 22 -31 22 -126 0 -101 -1 -104 -29 -133 -42 -42 -110 -42 -152 0
-28 29 -29 32 -29 133 0 95 2 106 23 126 19 18 60 40 79 41 4 1 19 -4 35 -10z"/>
</g>
</svg>
