<?xml version="1.0" standalone="no"?>
<!DOCTYPE svg PUBLIC "-//W3C//DTD SVG 20010904//EN"
 "http://www.w3.org/TR/2001/REC-SVG-20010904/DTD/svg10.dtd">
<svg version="1.0" xmlns="http://www.w3.org/2000/svg"
 width="90.000000pt" height="90.000000pt" viewBox="0 0 90.000000 90.000000"
 preserveAspectRatio="xMidYMid meet">

<g transform="translate(0.000000,90.000000) scale(0.100000,-0.100000)"
fill="#000000" stroke="none">
<path d="M360 879 c-120 -23 -254 -131 -306 -244 -79 -173 -42 -368 95 -499
70 -66 144 -103 236 -118 284 -47 544 214 497 499 -41 247 -276 410 -522 362z
m161 -19 c219 -41 377 -260 340 -471 -31 -181 -169 -319 -348 -350 -217 -38
-434 122 -474 348 -41 236 155 472 402 482 15 1 51 -4 80 -9z"/>
<path d="M373 740 c-46 -11 -118 -55 -137 -85 -45 -68 -43 -273 3 -363 47 -91
135 -162 203 -162 73 0 161 67 206 157 45 88 57 264 23 331 -53 104 -171 153
-298 122z m154 -25 c62 -18 129 -87 139 -143 12 -64 -3 -199 -29 -256 -45 -97
-125 -166 -194 -166 -72 0 -181 109 -204 205 -20 80 -17 223 4 267 43 86 168
127 284 93z"/>
<path d="M270 406 c0 -8 4 -17 9 -20 11 -7 33 18 24 27 -12 12 -33 7 -33 -7z"/>
<path d="M330 375 c0 -8 9 -15 20 -15 11 0 20 7 20 15 0 8 -9 15 -20 15 -11 0
-20 -7 -20 -15z"/>
<path d="M286 353 c-12 -12 -6 -33 9 -33 8 0 15 6 15 14 0 17 -14 28 -24 19z"/>
<path d="M387 305 l-27 -21 24 -23 c34 -32 88 -32 121 -1 25 23 25 24 7 43
-28 27 -92 29 -125 2z m107 -4 c8 -12 -39 -23 -69 -15 -36 9 -20 24 25 24 21
0 41 -4 44 -9z m-9 -41 c-8 -13 -55 -13 -75 0 -11 7 -2 10 33 10 30 0 46 -4
42 -10z"/>
</g>
</svg>
