<?xml version="1.0" standalone="no"?>
<!DOCTYPE svg PUBLIC "-//W3C//DTD SVG 20010904//EN"
 "http://www.w3.org/TR/2001/REC-SVG-20010904/DTD/svg10.dtd">
<svg version="1.0" xmlns="http://www.w3.org/2000/svg"
 width="90.000000pt" height="90.000000pt" viewBox="0 0 90.000000 90.000000"
 preserveAspectRatio="xMidYMid meet">

<g transform="translate(0.000000,90.000000) scale(0.100000,-0.100000)"
fill="#000000" stroke="none">
<path d="M340 876 c-194 -54 -330 -229 -330 -426 0 -239 201 -440 440 -440
199 0 373 137 426 335 38 141 -8 308 -116 415 -107 108 -279 155 -420 116z
m260 -36 c282 -112 359 -471 146 -683 -242 -242 -652 -109 -708 229 -35 210
106 420 319 474 59 15 181 5 243 -20z"/>
<path d="M384 701 c-52 -24 -111 -83 -135 -135 -29 -64 -26 -168 7 -234 44
-89 134 -145 234 -146 57 0 130 19 130 34 0 5 -18 15 -39 21 -109 33 -181 158
-152 265 21 78 72 133 146 158 50 18 54 31 14 45 -50 17 -158 13 -205 -8z
m175 -8 c0 -5 -21 -21 -47 -38 -106 -68 -141 -200 -83 -313 22 -42 77 -96 110
-107 31 -10 25 -23 -11 -27 -96 -9 -194 38 -242 116 -35 56 -46 149 -26 212
16 49 84 122 135 145 40 18 166 27 164 12z"/>
</g>
</svg>
