<?xml version="1.0" standalone="no"?>
<!DOCTYPE svg PUBLIC "-//W3C//DTD SVG 20010904//EN"
 "http://www.w3.org/TR/2001/REC-SVG-20010904/DTD/svg10.dtd">
<svg version="1.0" xmlns="http://www.w3.org/2000/svg"
 width="90.000000pt" height="90.000000pt" viewBox="0 0 90.000000 90.000000"
 preserveAspectRatio="xMidYMid meet">
<metadata>
Created by potrace 1.16, written by Peter Selinger 2001-2019
</metadata>
<g transform="translate(0.000000,90.000000) scale(0.100000,-0.100000)"
fill="#000000" stroke="none">
<path d="M354 885 c-230 -50 -383 -274 -344 -504 33 -196 175 -338 371 -371
295 -50 559 214 509 509 -32 189 -164 327 -349 367 -80 17 -107 16 -187 -1z
m268 -62 c88 -41 160 -113 201 -201 30 -62 32 -75 32 -172 0 -97 -2 -110 -32
-172 -41 -88 -113 -160 -201 -201 -62 -30 -75 -32 -172 -32 -97 0 -110 2 -172
32 -88 41 -160 113 -201 201 -30 62 -32 75 -32 172 0 97 2 110 32 172 51 108
140 185 258 225 25 8 75 12 130 10 77 -2 100 -7 157 -34z"/>
<path d="M435 688 c-3 -7 -13 -39 -22 -70 l-18 -58 -58 46 c-37 29 -62 43 -68
37 -8 -8 7 -64 35 -133 5 -13 -5 -14 -65 -12 -94 5 -105 -7 -44 -50 26 -18 54
-38 63 -44 13 -9 5 -18 -46 -53 -34 -23 -62 -46 -62 -51 0 -6 41 -10 95 -10
78 0 95 3 95 15 0 12 -13 15 -57 16 -58 0 -58 0 -33 17 13 9 35 26 49 38 l25
21 -55 37 -54 36 63 0 c69 0 71 2 47 69 -8 22 -11 41 -7 41 4 -1 23 -14 42
-30 19 -17 40 -30 46 -30 7 0 17 23 24 50 7 28 16 50 20 50 4 0 13 -22 20 -50
7 -27 17 -50 24 -50 6 0 27 13 46 30 19 16 38 29 42 30 4 0 1 -19 -7 -41 -24
-67 -22 -69 47 -69 l63 0 -54 -36 -55 -37 25 -21 c14 -12 36 -29 49 -38 25
-17 25 -17 -32 -17 -45 -1 -58 -4 -58 -16 0 -12 17 -15 95 -15 54 0 95 4 95
10 0 5 -28 28 -62 51 -51 35 -59 44 -46 53 9 6 37 26 63 44 61 43 50 55 -44
50 -60 -2 -70 -1 -65 12 28 69 43 125 35 133 -6 6 -31 -8 -68 -37 l-58 -46
-20 67 c-20 65 -40 89 -50 61z"/>
</g>
</svg>
