<?xml version="1.0" encoding="utf-8"?>
<!-- Generator: Adobe Illustrator 19.0.0, SVG Export Plug-In . SVG Version: 6.00 Build 0)  -->
<svg version="1.1" id="Bones_Icon" xmlns="http://www.w3.org/2000/svg" xmlns:xlink="http://www.w3.org/1999/xlink" x="0px" y="0px"
	 viewBox="-462 263 35 35" style="enable-background:new -462 263 35 35;" xml:space="preserve">
<style type="text/css">
	.st0{fill:#EC6B4C;}
	.st1{fill:#EC6B4C;stroke:#EC6B4C;stroke-width:0.2;stroke-miterlimit:10;}
</style>
<path id="Fill_66" class="st0" d="M-444.5,298c-9.7,0-17.5-7.8-17.5-17.5c0-4.6,1.8-9.1,5.1-12.4c6.8-6.8,17.9-6.8,24.8,0
	s6.8,17.9,0,24.8C-435.4,296.2-439.9,298-444.5,298z M-444.5,263.9c-9.2,0-16.6,7.5-16.6,16.6c0,4.4,1.8,8.6,4.9,11.7
	c6.6,6.4,17.1,6.3,23.5-0.3c6.3-6.5,6.3-16.8,0-23.2C-435.9,265.6-440.1,263.9-444.5,263.9z"/>
<path id="Fill_1" class="st1" d="M-450.8,292c-1.3,0-2.5-0.9-2.7-2.2c0,0,0-0.1,0-0.1l0,0c-0.9-0.1-1.7-0.7-2.1-1.5
	c-0.6-1.1-0.3-2.5,0.6-3.4c0.6-0.6,1.3-0.9,2.1-1.1c1.5-0.3,2.9-0.9,4.2-1.9c1.5-1,2.8-2.2,4-3.5c1.3-1.3,2.3-2.8,3.1-4.4
	c0.2-0.6,0.4-1.2,0.5-1.9c0.1-1.1,0.8-2.2,1.8-2.7c0.4-0.2,0.9-0.4,1.3-0.4c1.3,0,2.4,0.9,2.8,2.1c0,0.2,0.1,0.3,0.3,0.3
	c1.5,0.3,2.5,1.8,2.1,3.4c-0.1,0.3-0.2,0.7-0.4,0.9c-0.5,0.8-1.3,1.3-2.2,1.5c-1.7,0.3-3.3,1-4.6,2.1c-1.5,1.1-2.9,2.3-4.1,3.7
	c-1.1,1.2-2,2.5-2.7,4c-0.3,0.6-0.4,1.3-0.5,1.9c-0.1,1.3-0.9,2.4-2.1,2.8C-450.1,291.9-450.4,292-450.8,292z M-438.2,269.6
	c-0.3,0-0.7,0.1-1,0.3c-0.9,0.4-1.5,1.3-1.6,2.2c-0.1,1-0.4,1.9-0.8,2.7c-0.7,1.3-1.6,2.5-2.6,3.6c-1.2,1.4-2.6,2.6-4.1,3.6
	c-1.4,1.1-3.1,1.8-4.8,2.2c-0.7,0.1-1.3,0.5-1.8,1.1c-0.4,0.5-0.6,1.2-0.5,1.8c0.1,0.6,0.5,1.2,1,1.5c0.3,0.1,0.6,0.2,0.9,0.3
	c0.1,0,0.3,0.1,0.4,0.1l0,0l0,0c0,0,0,0.1,0,0.1c0.1,1.2,1,2.1,2.2,2.1c0.4,0,0.7-0.1,1-0.3c0.9-0.4,1.5-1.3,1.5-2.3
	c0.1-1,0.4-1.9,0.8-2.7c0.7-1.3,1.5-2.4,2.5-3.5c1.3-1.4,2.7-2.7,4.2-3.8c1.4-1,3-1.8,4.6-2.1c0.7-0.1,1.4-0.5,1.9-1.1
	c0.7-0.8,0.7-2.1,0-2.9c-0.5-0.5-1.1-0.8-1.8-0.7l0-0.2l0-0.1C-436.1,270.6-437,269.6-438.2,269.6z"/>
</svg>
