<?xml version="1.0" encoding="utf-8"?>
<!-- Generator: Adobe Illustrator 19.0.0, SVG Export Plug-In . SVG Version: 6.00 Build 0)  -->
<svg version="1.1" id="Layer_1" xmlns="http://www.w3.org/2000/svg" xmlns:xlink="http://www.w3.org/1999/xlink" x="0px" y="0px"
	 viewBox="0 0 35 35" style="enable-background:new 0 0 35 35;" xml:space="preserve">
<style type="text/css">
	.st0{clip-path:url(#SVGID_3_);}
	.st1{clip-path:url(#SVGID_4_);fill:#EC6B4C;}
	.st2{fill:none;stroke:#EC6B4C;stroke-width:0.8571;stroke-linecap:round;stroke-linejoin:round;stroke-miterlimit:10;}
</style>
<g>
	<g>
		<defs>
			<rect id="SVGID_1_" y="0" width="35" height="35"/>
		</defs>
		<defs>
			<path id="SVGID_2_" d="M17.5,35c-4.5,0-9-1.7-12.4-5.1C1.8,26.6,0,22.2,0,17.5c0-4.7,1.8-9.1,5.1-12.4c6.8-6.8,17.9-6.8,24.8,0
				c6.8,6.8,6.8,17.9,0,24.8C26.5,33.3,22,35,17.5,35 M17.5,0.9c-4.4,0-8.6,1.7-11.8,4.9c-3.1,3.1-4.9,7.3-4.9,11.8
				c0,4.4,1.7,8.6,4.9,11.8c6.5,6.5,17,6.5,23.5,0c3.1-3.1,4.9-7.3,4.9-11.8c0-4.4-1.7-8.6-4.9-11.8C26.1,2.6,21.9,0.9,17.5,0.9"/>
		</defs>
		<clipPath id="SVGID_3_">
			<use xlink:href="#SVGID_1_"  style="overflow:visible;"/>
		</clipPath>
		<clipPath id="SVGID_4_" class="st0">
			<use xlink:href="#SVGID_2_"  style="overflow:visible;"/>
		</clipPath>
		<rect x="-5" y="-5" class="st1" width="45" height="45"/>
	</g>
	<path class="st2" d="M16.4,15c0,1.6-1.3,2.9-2.9,2.9c-1.6,0-2.9-1.3-2.9-2.9 M10.7,15V7.9 M16.4,15V7.9 M13.6,27.1V7.9 M21.4,10.7
		c0-1.6,1.3-2.9,2.9-2.9 M21.4,10.7v7.1 M21.4,17.1c0,1.6,1.3,2.9,2.9,2.9 M24.3,27.1V7.9"/>
</g>
</svg>
