<?xml version="1.0" encoding="utf-8"?>
<!-- Generator: Adobe Illustrator 19.0.0, SVG Export Plug-In . SVG Version: 6.00 Build 0)  -->
<svg version="1.1" id="Layer_1" xmlns="http://www.w3.org/2000/svg" xmlns:xlink="http://www.w3.org/1999/xlink" x="0px" y="0px"
	 viewBox="0 0 35 35" style="enable-background:new 0 0 35 35;" xml:space="preserve">
<style type="text/css">
	.st0{clip-path:url(#SVGID_5_);}
	.st1{clip-path:url(#SVGID_6_);fill:#EC6B4C;}
	.st2{clip-path:url(#SVGID_11_);}
	.st3{clip-path:url(#SVGID_12_);fill:#EC6B4C;}
</style>
<g>
	<g>
		<defs>
			<rect id="SVGID_1_" width="35" height="35"/>
		</defs>
		<clipPath id="SVGID_2_">
			<use xlink:href="#SVGID_1_"  style="overflow:visible;"/>
		</clipPath>
	</g>
	<g>
		<defs>
			<rect id="SVGID_3_" width="35" height="35"/>
		</defs>
		<defs>
			<path id="SVGID_4_" d="M17.5,35c-4.5,0-9-1.7-12.4-5.1C1.8,26.6,0,22.2,0,17.5S1.8,8.4,5.1,5.1c6.8-6.8,17.9-6.8,24.8,0
				c6.8,6.8,6.8,17.9,0,24.8C26.5,33.3,22,35,17.5,35 M17.5,0.9c-4.4,0-8.6,1.7-11.8,4.9c-3.1,3.1-4.9,7.3-4.9,11.8
				c0,4.4,1.7,8.6,4.9,11.8c6.5,6.5,17,6.5,23.5,0c3.1-3.1,4.9-7.3,4.9-11.8c0-4.4-1.7-8.6-4.9-11.8C26.1,2.6,21.9,0.9,17.5,0.9"/>
		</defs>
		<clipPath id="SVGID_5_">
			<use xlink:href="#SVGID_3_"  style="overflow:visible;"/>
		</clipPath>
		<clipPath id="SVGID_6_" class="st0">
			<use xlink:href="#SVGID_4_"  style="overflow:visible;"/>
		</clipPath>
		<rect id="XMLID_11_" x="-5" y="-5" class="st1" width="45" height="45"/>
	</g>
</g>
<g>
	<g>
		<defs>
			<rect id="SVGID_7_" width="35" height="35"/>
		</defs>
		<clipPath id="SVGID_8_">
			<use xlink:href="#SVGID_7_"  style="overflow:visible;"/>
		</clipPath>
	</g>
	<g>
		<defs>
			<rect id="SVGID_9_" x="0.2" y="0.7" transform="matrix(0.866 -0.5 0.5 0.866 -6.715 11.2737)" width="35" height="35"/>
		</defs>
		<defs>
			<path id="SVGID_10_" d="M22.3,9.7L22.3,9.7c0.7,0.4,1.4,0.8,2.1,1.3c0.2,0.1,0.4,0.1,0.4,0c0.2-0.2,0.3-0.5,0.4-0.8
				c0.1-0.2,0-0.4-0.1-0.4C23.8,9,22.4,8.1,21,7.3c-0.2-0.1-0.4,0-0.5,0.2s-0.3,0.5-0.4,0.7C20,8.3,20,8.5,20.2,8.6
				C20.9,8.9,21.6,9.3,22.3,9.7L22.3,9.7z M12.7,26L12.7,26c-0.7-0.5-1.4-0.9-2.1-1.3c-0.2-0.1-0.3-0.1-0.4,0.1
				c-0.2,0.3-0.3,0.6-0.5,0.9c-0.1,0.2-0.1,0.3,0.1,0.4c0.6,0.4,1.1,0.7,1.7,1c0.9,0.5,1.8,1.1,2.6,1.6c0.2,0.1,0.3,0.2,0.4-0.1
				c0.2-0.3,0.4-0.6,0.4-0.8c0.1-0.2,0.1-0.3-0.1-0.4C14.1,26.8,13.4,26.4,12.7,26L12.7,26z M21.9,10.4L21.9,10.4
				c-1-0.7-2.1-1.3-3.2-1.9c0-0.1-0.1,0-0.2-0.1c-0.2-0.1-0.4,0-0.5,0.2c-0.1,0.2-0.2,0.4-0.3,0.6c-0.2,0.3-0.2,0.5,0.1,0.6
				c0.9,0.5,1.8,1.1,2.6,1.6c1.3,0.8,2.5,1.6,3.9,2.3c0.3,0.2,0.4,0.1,0.6-0.2c0.1-0.2,0.2-0.5,0.4-0.7c0.1-0.2,0-0.4-0.2-0.5
				C24,11.7,22.9,11.1,21.9,10.4L21.9,10.4z M13.1,25.3L13.1,25.3c1.1,0.7,2.3,1.3,3.3,2c0.2,0.1,0.3,0.1,0.3-0.1
				c0.2-0.3,0.4-0.7,0.6-1c0-0.1,0.1-0.3-0.1-0.3s-0.3-0.2-0.5-0.2c-2.1-1.2-4.2-2.5-6.3-3.7c-0.2-0.1-0.3-0.1-0.4,0.1
				C10,22.4,9.7,22.6,9.6,23c-0.1,0.2-0.1,0.3,0.1,0.4C10.9,24,12.1,24.6,13.1,25.3L13.1,25.3z M19.9,12c-2.1,3.6-4.2,7.2-6.3,10.7
				l1.2,0.7c2.1-3.5,4.2-7.2,6.3-10.7L19.9,12L19.9,12z M13,22.4c2.1-3.6,4.2-7.2,6.3-10.8c-0.1-0.1-0.1,0-0.2-0.1
				c-0.6-0.4-1.1-0.7-1.7-1C16.8,10.1,16.7,9.6,17,9c0.2-0.3,0.4-0.6,0.5-0.9c0.4-0.6,1-0.7,1.5-0.4c0,0.1,0.2,0.1,0.2,0.2
				c0.2-0.4,0.4-0.8,0.7-1.2s0.8-0.6,1.3-0.4c0.3,0.1,0.5,0.3,0.7,0.4c1.2,0.7,2.4,1.4,3.6,2.1c0.5,0.3,0.8,0.9,0.5,1.6
				c-0.2,0.3-0.4,0.7-0.7,1.1c0.1,0.1,0.2,0.1,0.3,0.2c0.5,0.3,0.6,0.9,0.4,1.4c-0.2,0.3-0.3,0.6-0.5,0.9c-0.3,0.5-0.9,0.6-1.4,0.4
				c-0.7-0.4-1.4-0.8-2-1.1c0-0.1-0.1,0-0.2-0.1c-2.1,3.6-4.2,7.2-6.4,10.7c0.1,0.1,0.1,0,0.2,0.1c0.7,0.4,1.4,0.8,2,1.2
				c0.6,0.4,0.7,0.9,0.4,1.4c-0.2,0.3-0.4,0.6-0.5,0.9c-0.4,0.6-0.9,0.7-1.4,0.4c-0.1,0-0.2-0.1-0.3-0.2c0,0.1-0.1,0.2-0.2,0.2
				c-0.2,0.4-0.4,0.7-0.7,1.1c-0.2,0.4-0.8,0.4-1.1,0.3c-1.6-0.9-3.1-1.8-4.6-2.8c-0.4-0.2-0.5-0.7-0.3-1.1C8.9,25.2,9,25.1,9,25
				c0.2-0.3,0.3-0.6,0.6-1c-0.1,0-0.2-0.1-0.3-0.2c-0.5-0.3-0.7-0.8-0.4-1.3c0.2-0.5,0.4-0.8,0.7-1.2c0.3-0.4,0.8-0.6,1.3-0.3
				c0.6,0.4,1.2,0.7,1.8,1.1C12.8,22.4,12.8,22.4,13,22.4L13,22.4z"/>
		</defs>
		<clipPath id="SVGID_11_">
			<use xlink:href="#SVGID_9_"  style="overflow:visible;"/>
		</clipPath>
		<clipPath id="SVGID_12_" class="st2">
			<use xlink:href="#SVGID_10_"  style="overflow:visible;"/>
		</clipPath>
		
			<rect id="XMLID_9_" x="0.7" y="7.8" transform="matrix(0.866 -0.5 0.5 0.866 -6.5686 11.1273)" class="st3" width="33.6" height="20"/>
	</g>
</g>
</svg>
