<?xml version="1.0" encoding="utf-8"?>
<!-- Generator: Adobe Illustrator 19.0.0, SVG Export Plug-In . SVG Version: 6.00 Build 0)  -->
<svg version="1.1" id="Hair_Icon" xmlns="http://www.w3.org/2000/svg" xmlns:xlink="http://www.w3.org/1999/xlink" x="0px" y="0px"
	 viewBox="-462 263 35 35" style="enable-background:new -462 263 35 35;" xml:space="preserve">
<style type="text/css">
	.st0{fill:#EC6B4C;}
</style>
<path id="Fill_62" class="st0" d="M-444.5,298c-9.7,0-17.5-7.8-17.5-17.5c0-4.6,1.8-9.1,5.1-12.4c6.8-6.8,17.9-6.8,24.8,0
	s6.8,17.9,0,24.8C-435.4,296.2-439.9,298-444.5,298z M-444.5,263.9c-9.2,0-16.6,7.5-16.6,16.6c0,4.4,1.8,8.6,4.9,11.7
	c6.6,6.4,17.1,6.3,23.5-0.3c6.3-6.5,6.3-16.8,0-23.2C-435.9,265.6-440.1,263.9-444.5,263.9z"/>
<path id="Fill_19" class="st0" d="M-437.5,292c-0.2,0-0.4-0.2-0.4-0.4v-21.1c0-0.2,0.1-0.4,0.3-0.4s0.4,0.1,0.4,0.3c0,0,0,0.1,0,0.1
	v21.1C-437.1,291.8-437.2,292-437.5,292z M-440.3,292c-0.2,0-0.4-0.2-0.4-0.4v-21.1c0-0.2,0.2-0.4,0.4-0.4c0.2,0,0.4,0.2,0.4,0.4
	c0,0,0,0,0,0.1v21.1C-439.9,291.8-440,292-440.3,292L-440.3,292z M-443.1,292c-0.2,0-0.4-0.2-0.4-0.4v-21.1c0-0.2,0.1-0.4,0.3-0.4
	c0.2,0,0.4,0.1,0.4,0.3c0,0,0,0.1,0,0.1v21.1C-442.7,291.8-442.9,292-443.1,292z M-445.9,292c-0.2,0-0.4-0.2-0.4-0.4v-21.1
	c0-0.2,0.2-0.4,0.4-0.4s0.4,0.2,0.4,0.4v21.1C-445.5,291.8-445.7,292-445.9,292z M-448.8,292c-0.2,0-0.4-0.2-0.4-0.4v-21.1
	c0-0.2,0.2-0.4,0.4-0.4c0.2,0,0.4,0.2,0.4,0.4v21.1C-448.4,291.8-448.6,292-448.8,292z M-451.6,292c-0.2,0-0.4-0.2-0.4-0.4v-21.1
	c0-0.2,0.2-0.4,0.4-0.4c0.2,0,0.4,0.2,0.4,0.4v21.1C-451.2,291.8-451.3,292-451.6,292z"/>
</svg>
