<?xml version="1.0" encoding="utf-8"?>
<!-- Generator: Adobe Illustrator 19.0.0, SVG Export Plug-In . SVG Version: 6.00 Build 0)  -->
<svg version="1.1" id="Heart_Icon" xmlns="http://www.w3.org/2000/svg" xmlns:xlink="http://www.w3.org/1999/xlink" x="0px" y="0px"
	 viewBox="-462 263 35 35" style="enable-background:new -462 263 35 35;" xml:space="preserve">
<style type="text/css">
	.st0{fill:#EC6B4C;}
	.st1{fill:none;stroke:#EC6B4C;stroke-linejoin:round;stroke-miterlimit:10;}
</style>
<path id="Fill_69" class="st0" d="M-444.5,298c-9.7,0-17.5-7.8-17.5-17.5c0-4.6,1.8-9.1,5.1-12.4c6.8-6.8,17.9-6.8,24.8,0
	s6.8,17.9,0,24.8C-435.4,296.2-439.9,298-444.5,298z M-444.5,263.9c-9.2,0-16.6,7.5-16.6,16.6c0,4.4,1.8,8.6,4.9,11.7
	c6.6,6.4,17.1,6.3,23.5-0.3c6.3-6.5,6.3-16.8,0-23.2C-435.9,265.6-440.1,263.9-444.5,263.9z"/>
<path id="Stroke_18" class="st1" d="M-446.6,274.3c-0.9-0.9-2.1-1.3-3.3-1.3c-1.4,0-2.7,0.5-3.6,1.5c-0.9,1-1.4,2.3-1.5,3.6
	c-0.4,5.8,9.2,13,10.5,12.9c0.7,0.1,10.9-6.9,10.5-12.9c0-1.3-0.5-2.6-1.5-3.6c-0.9-1-2.2-1.5-3.6-1.5c-1.2,0-2.4,0.4-3.3,1.3
	c-1,1.1-1.7,2.4-2.1,3.9C-444.9,276.7-445.6,275.4-446.6,274.3z"/>
</svg>
