<?xml version="1.0" encoding="utf-8"?>
<!-- Generator: Adobe Illustrator 19.0.0, SVG Export Plug-In . SVG Version: 6.00 Build 0)  -->
<svg version="1.1" id="Layer_1" xmlns="http://www.w3.org/2000/svg" xmlns:xlink="http://www.w3.org/1999/xlink" x="0px" y="0px"
	 viewBox="0 0 35 35" style="enable-background:new 0 0 35 35;" xml:space="preserve">
<style type="text/css">
	.st0{clip-path:url(#SVGID_3_);}
	.st1{clip-path:url(#SVGID_4_);fill:#EC6B4C;}
	.st2{clip-path:url(#SVGID_6_);}
	.st3{clip-path:url(#SVGID_9_);}
	.st4{clip-path:url(#SVGID_10_);fill:#EC6B4C;}
	.st5{fill:#EC6B4C;}
	.st6{clip-path:url(#SVGID_13_);}
	.st7{clip-path:url(#SVGID_14_);fill:#EC6B4C;}
</style>
<g>
	<defs>
		<rect id="SVGID_1_" y="0" width="35" height="35"/>
	</defs>
	<defs>
		<path id="SVGID_2_" d="M17.5,35c-4.5,0-9-1.7-12.4-5.1C1.8,26.6,0,22.2,0,17.5c0-4.7,1.8-9.1,5.1-12.4c6.8-6.8,17.9-6.8,24.8,0
			c6.8,6.8,6.8,17.9,0,24.8C26.5,33.3,22,35,17.5,35 M17.5,0.9c-4.4,0-8.6,1.7-11.8,4.9c-3.1,3.1-4.9,7.3-4.9,11.8
			c0,4.4,1.7,8.6,4.9,11.8c6.5,6.5,17,6.5,23.5,0c3.1-3.1,4.9-7.3,4.9-11.8c0-4.4-1.7-8.6-4.9-11.8C26.1,2.6,21.9,0.9,17.5,0.9"/>
	</defs>
	<clipPath id="SVGID_3_">
		<use xlink:href="#SVGID_1_"  style="overflow:visible;"/>
	</clipPath>
	<clipPath id="SVGID_4_" class="st0">
		<use xlink:href="#SVGID_2_"  style="overflow:visible;"/>
	</clipPath>
	<rect x="-5" y="-5" class="st1" width="45" height="45"/>
</g>
<g>
	<defs>
		<circle id="SVGID_5_" cx="17.4" cy="17.7" r="16.9"/>
	</defs>
	<clipPath id="SVGID_6_">
		<use xlink:href="#SVGID_5_"  style="overflow:visible;"/>
	</clipPath>
	<g class="st2">
		<g>
			<g>
				<defs>
					<rect id="SVGID_7_" x="-10.9" y="11.6" width="35" height="35"/>
				</defs>
				<defs>
					<path id="SVGID_8_" d="M15.1,20.6c0-0.1,0-0.2,0-0.3c-0.1-1.7-1.8-2.6-3.2-1.9c-0.9,0.5-1.5,1.2-1.6,2.2
						c-0.1,1-0.4,1.9-0.8,2.7C8.8,24.8,8,26,6.9,27.1c-1.2,1.4-2.6,2.6-4.1,3.6c-1.5,1-3,1.9-4.8,2.2c-0.7,0.1-1.3,0.5-1.8,1.1
						c-0.9,1-0.6,2.6,0.6,3.3c0.4,0.2,0.8,0.3,1.3,0.5c0,0,0,0.1,0,0.1c0.1,1.7,1.8,2.6,3.2,1.9c0.9-0.5,1.5-1.2,1.5-2.3
						c0.1-1,0.4-1.9,0.8-2.7c0.7-1.3,1.5-2.4,2.5-3.5c1.3-1.4,2.7-2.7,4.2-3.8c1.4-1,2.9-1.8,4.6-2.1c0.8-0.1,1.4-0.5,1.9-1.1
						c0.7-0.8,0.7-2.1,0-2.9C16.4,20.8,15.8,20.6,15.1,20.6 M-2.5,38.2c-0.9-0.2-1.7-0.7-2.1-1.5c-0.6-1.1-0.3-2.5,0.6-3.4
						c0.6-0.6,1.3-0.9,2.1-1.1c1.5-0.3,2.9-1,4.2-1.9c1.5-1,2.8-2.2,4-3.5c1.2-1.3,2.3-2.7,3.1-4.4c0.3-0.6,0.4-1.2,0.5-1.9
						c0.1-1.2,0.8-2.1,1.8-2.7c1.6-0.9,3.7,0,4.1,1.8c0,0.2,0.1,0.3,0.3,0.3c1.9,0.4,2.8,2.7,1.7,4.3c-0.5,0.8-1.2,1.4-2.2,1.5
						c-1.7,0.3-3.2,1.1-4.6,2.1C9.3,29,8,30.2,6.7,31.6c-1.1,1.2-2.1,2.5-2.7,4c-0.3,0.6-0.4,1.3-0.5,1.9c-0.2,1.3-0.9,2.3-2.1,2.8
						c-1.6,0.7-3.4-0.3-3.8-2C-2.4,38.3-2.4,38.2-2.5,38.2"/>
				</defs>
				<clipPath id="SVGID_9_">
					<use xlink:href="#SVGID_7_"  style="overflow:visible;"/>
				</clipPath>
				<clipPath id="SVGID_10_" class="st3">
					<use xlink:href="#SVGID_8_"  style="overflow:visible;"/>
				</clipPath>
				<rect x="-9.9" y="12.6" class="st4" width="33" height="33"/>
			</g>
			<g>
				<path class="st5" d="M15.2,20.5c0-0.1,0-0.1,0-0.2c-0.1-0.8-0.5-1.5-1.2-1.9c-0.7-0.4-1.5-0.4-2.1,0c-1,0.5-1.5,1.3-1.6,2.3
					c-0.1,0.9-0.4,1.8-0.8,2.7C8.8,24.6,8,25.8,6.9,27c-1.3,1.5-2.7,2.6-4.1,3.6c-1.3,0.9-2.9,1.9-4.8,2.2c-0.7,0.1-1.3,0.5-1.8,1.1
					c-0.5,0.5-0.6,1.2-0.5,1.9c0.1,0.7,0.5,1.2,1.1,1.5c0.3,0.1,0.6,0.2,0.9,0.3c0.1,0,0.2,0.1,0.4,0.1c0,0,0,0,0,0.1
					c0.1,0.8,0.5,1.6,1.2,2c0.3,0.2,0.7,0.3,1.1,0.3c0.4,0,0.7-0.1,1.1-0.3c1-0.5,1.5-1.3,1.6-2.3c0.1-0.9,0.3-1.8,0.8-2.7
					c0.6-1.2,1.5-2.4,2.5-3.5c1.4-1.5,2.8-2.8,4.2-3.8c1.3-0.9,2.8-1.8,4.6-2.1c0.7-0.1,1.4-0.5,1.9-1.1c0.7-0.8,0.7-2.2,0-3
					C16.5,20.8,16,20.6,15.2,20.5z M16.9,24.2c-0.5,0.6-1.1,0.9-1.8,1c-1.8,0.3-3.3,1.2-4.7,2.1c-1.4,1-2.8,2.2-4.2,3.8
					c-1,1.1-1.9,2.3-2.5,3.5c-0.5,0.9-0.8,1.9-0.9,2.8c-0.1,0.9-0.6,1.7-1.5,2.2c-0.6,0.3-1.3,0.3-1.9,0c-0.6-0.4-1.1-1-1.1-1.8
					c0-0.1,0-0.1,0-0.1l0-0.1l-0.1,0c-0.1,0-0.3-0.1-0.4-0.1c-0.3-0.1-0.6-0.2-0.8-0.3c-0.5-0.3-0.9-0.8-1-1.4
					C-4.2,35.1-4,34.5-3.6,34c0.5-0.6,1.1-0.9,1.7-1c1.9-0.3,3.5-1.3,4.9-2.2c1.4-1,2.8-2.2,4.1-3.7c1.1-1.2,1.9-2.4,2.6-3.7
					c0.5-0.9,0.7-1.8,0.8-2.8c0.1-0.9,0.6-1.7,1.5-2.1c0.6-0.3,1.3-0.3,1.9,0c0.6,0.4,1,1,1.1,1.8c0,0.1,0,0.2,0,0.3l0,0.1l0.1,0
					c0.7,0,1.3,0.3,1.7,0.7C17.5,22.1,17.6,23.5,16.9,24.2z"/>
				<path class="st5" d="M18,21.7c-0.4-0.9-1.1-1.5-2.1-1.7c-0.2,0-0.2-0.1-0.2-0.3c-0.2-0.9-0.8-1.6-1.7-2
					c-0.9-0.4-1.8-0.3-2.6,0.1c-1.1,0.6-1.7,1.6-1.9,2.8c-0.1,0.7-0.2,1.3-0.5,1.8c-0.6,1.5-1.6,2.8-3,4.4c-1.2,1.3-2.6,2.5-4,3.4
					c-1,0.7-2.5,1.6-4.1,1.8c-0.8,0.1-1.5,0.5-2.1,1.1c-0.9,0.9-1.2,2.4-0.6,3.5c0.4,0.8,1.1,1.3,2.1,1.6c0,0,0,0.1,0,0.1
					c0.2,0.9,0.8,1.6,1.6,2c0.4,0.2,0.8,0.3,1.3,0.3c0.4,0,0.8-0.1,1.1-0.2c1.3-0.6,2-1.6,2.2-2.9c0.1-0.7,0.2-1.3,0.5-1.9
					c0.6-1.3,1.4-2.6,2.7-4c1.2-1.4,2.6-2.6,4.1-3.6c1.6-1.1,3.1-1.8,4.6-2c0.9-0.1,1.7-0.7,2.2-1.6C18.3,23.6,18.4,22.6,18,21.7z
					 M17.6,24.3c-0.6,0.8-1.3,1.3-2.1,1.5c-1.5,0.3-3,0.9-4.7,2.1c-1.5,1.1-2.9,2.3-4.1,3.7c-1.3,1.4-2.1,2.7-2.7,4
					c-0.3,0.6-0.4,1.2-0.5,2c-0.1,1.3-0.8,2.2-2,2.8c-0.7,0.3-1.5,0.3-2.2-0.1c-0.7-0.4-1.3-1.1-1.5-1.9c0,0,0-0.1,0-0.1l0-0.1
					l-0.1,0c-1-0.2-1.6-0.7-2-1.5c-0.5-1-0.3-2.4,0.6-3.2c0.6-0.6,1.2-0.9,2-1c1.7-0.3,3.1-1.2,4.2-1.9c1.4-1,2.8-2.1,4-3.5
					c1.5-1.6,2.4-3,3.1-4.4c0.2-0.5,0.4-1.1,0.5-1.9c0.1-1.1,0.7-2,1.8-2.6c0.4-0.2,0.8-0.3,1.3-0.3c0.4,0,0.7,0.1,1.1,0.2
					c0.8,0.3,1.4,1,1.6,1.8c0,0.2,0.1,0.4,0.4,0.4c0.9,0.2,1.6,0.8,1.9,1.6C18.2,22.6,18.1,23.6,17.6,24.3z"/>
			</g>
		</g>
		<g>
			<g>
				<defs>
					<rect id="SVGID_11_" x="10.2" y="-9.5" width="35" height="35"/>
				</defs>
				<defs>
					<path id="SVGID_12_" d="M36.2-0.5c0-0.1,0-0.2,0-0.3c-0.1-1.7-1.8-2.6-3.2-1.9c-0.9,0.5-1.5,1.2-1.6,2.2
						c-0.1,1-0.4,1.9-0.8,2.7C29.9,3.7,29,4.9,28,6c-1.2,1.4-2.6,2.6-4.1,3.6c-1.5,1-3,1.9-4.8,2.2c-0.7,0.1-1.3,0.5-1.8,1.1
						c-0.9,1-0.6,2.6,0.6,3.3c0.4,0.2,0.8,0.3,1.3,0.5c0,0,0,0.1,0,0.1c0.1,1.7,1.8,2.6,3.2,1.9c0.9-0.5,1.5-1.2,1.5-2.3
						c0.1-1,0.4-1.9,0.8-2.7c0.7-1.3,1.5-2.4,2.5-3.5c1.3-1.4,2.7-2.7,4.2-3.8c1.4-1,2.9-1.8,4.6-2.1c0.8-0.1,1.4-0.5,1.9-1.1
						c0.7-0.8,0.7-2.1,0-2.9C37.5-0.2,36.9-0.5,36.2-0.5 M18.6,17.1c-0.9-0.2-1.7-0.7-2.1-1.5c-0.6-1.1-0.3-2.5,0.6-3.4
						c0.6-0.6,1.3-0.9,2.1-1.1c1.5-0.3,2.9-1,4.2-1.9c1.5-1,2.8-2.2,4-3.5c1.2-1.3,2.3-2.7,3.1-4.4c0.3-0.6,0.4-1.2,0.5-1.9
						c0.1-1.2,0.8-2.1,1.8-2.7c1.6-0.9,3.7,0,4.1,1.8c0,0.2,0.1,0.3,0.3,0.3c1.9,0.4,2.8,2.7,1.7,4.3c-0.5,0.8-1.2,1.4-2.2,1.5
						c-1.7,0.3-3.2,1.1-4.6,2.1c-1.5,1.1-2.9,2.3-4.1,3.7c-1.1,1.2-2.1,2.5-2.7,4c-0.3,0.6-0.4,1.3-0.5,1.9
						c-0.2,1.3-0.9,2.3-2.1,2.8c-1.6,0.7-3.4-0.3-3.8-2C18.7,17.2,18.6,17.1,18.6,17.1"/>
				</defs>
				<clipPath id="SVGID_13_">
					<use xlink:href="#SVGID_11_"  style="overflow:visible;"/>
				</clipPath>
				<clipPath id="SVGID_14_" class="st6">
					<use xlink:href="#SVGID_12_"  style="overflow:visible;"/>
				</clipPath>
				<rect x="11.2" y="-8.5" class="st7" width="33" height="33"/>
			</g>
			<g>
				<path class="st5" d="M36.3-0.6c0-0.1,0-0.1,0-0.2c-0.1-0.8-0.5-1.5-1.2-1.9C34.4-3,33.6-3,33-2.7c-1,0.5-1.5,1.3-1.6,2.3
					c-0.1,0.9-0.4,1.8-0.8,2.7C29.9,3.5,29,4.7,28,5.9c-1.3,1.5-2.7,2.6-4.1,3.6c-1.3,0.9-2.9,1.9-4.8,2.2c-0.7,0.1-1.3,0.5-1.8,1.1
					c-0.5,0.5-0.6,1.2-0.5,1.9c0.1,0.7,0.5,1.2,1.1,1.5c0.3,0.1,0.6,0.2,0.9,0.3c0.1,0,0.2,0.1,0.4,0.1c0,0,0,0,0,0.1
					c0.1,0.8,0.5,1.6,1.2,2c0.3,0.2,0.7,0.3,1.1,0.3c0.4,0,0.7-0.1,1.1-0.3c1-0.5,1.5-1.3,1.6-2.3c0.1-0.9,0.3-1.8,0.8-2.7
					c0.6-1.2,1.5-2.4,2.5-3.5c1.4-1.5,2.8-2.8,4.2-3.8c1.3-0.9,2.8-1.8,4.6-2.1c0.7-0.1,1.4-0.5,1.9-1.1c0.7-0.8,0.7-2.2,0-3
					C37.6-0.3,37.1-0.5,36.3-0.6z M38,3.1c-0.5,0.6-1.1,0.9-1.8,1c-1.8,0.3-3.3,1.2-4.7,2.1c-1.4,1-2.8,2.2-4.2,3.8
					c-1,1.1-1.9,2.3-2.5,3.5c-0.5,0.9-0.8,1.9-0.9,2.8c-0.1,0.9-0.6,1.7-1.5,2.2c-0.6,0.3-1.3,0.3-1.9,0c-0.6-0.4-1.1-1-1.1-1.8
					c0-0.1,0-0.1,0-0.1l0-0.1l-0.1,0c-0.1,0-0.3-0.1-0.4-0.1c-0.3-0.1-0.6-0.2-0.8-0.3c-0.5-0.3-0.9-0.8-1-1.4
					c-0.1-0.6,0.1-1.3,0.5-1.7c0.5-0.6,1.1-0.9,1.7-1c1.9-0.3,3.5-1.3,4.9-2.2c1.4-1,2.8-2.2,4.1-3.7c1.1-1.2,1.9-2.4,2.6-3.7
					c0.5-0.9,0.7-1.8,0.8-2.8c0.1-0.9,0.6-1.7,1.5-2.1c0.6-0.3,1.3-0.3,1.9,0c0.6,0.4,1,1,1.1,1.8c0,0.1,0,0.2,0,0.3l0,0.1l0.1,0
					c0.7,0,1.3,0.3,1.7,0.7C38.6,1,38.7,2.4,38,3.1z"/>
				<path class="st5" d="M39.1,0.6C38.7-0.2,38-0.9,37-1.1c-0.2,0-0.2-0.1-0.2-0.3c-0.2-0.9-0.8-1.6-1.7-2c-0.9-0.4-1.8-0.3-2.6,0.1
					c-1.1,0.6-1.7,1.6-1.9,2.8c-0.1,0.7-0.2,1.3-0.5,1.8c-0.6,1.5-1.6,2.8-3,4.4c-1.2,1.3-2.6,2.5-4,3.4c-1,0.7-2.5,1.6-4.1,1.8
					c-0.8,0.1-1.5,0.5-2.1,1.1c-0.9,0.9-1.2,2.4-0.6,3.5c0.4,0.8,1.1,1.3,2.1,1.6c0,0,0,0.1,0,0.1c0.2,0.9,0.8,1.6,1.6,2
					c0.4,0.2,0.8,0.3,1.3,0.3c0.4,0,0.8-0.1,1.1-0.2c1.3-0.6,2-1.6,2.2-2.9c0.1-0.7,0.2-1.3,0.5-1.9c0.6-1.3,1.4-2.6,2.7-4
					C29.1,9.2,30.5,8,32,6.9c1.6-1.1,3.1-1.8,4.6-2c0.9-0.1,1.7-0.7,2.2-1.6C39.4,2.5,39.5,1.5,39.1,0.6z M38.7,3.2
					c-0.6,0.8-1.3,1.3-2.1,1.5c-1.5,0.3-3,0.9-4.7,2.1c-1.5,1.1-2.9,2.3-4.1,3.7c-1.3,1.4-2.1,2.7-2.7,4c-0.3,0.6-0.4,1.2-0.5,2
					c-0.1,1.3-0.8,2.2-2,2.8c-0.7,0.3-1.5,0.3-2.2-0.1c-0.7-0.4-1.3-1.1-1.5-1.9c0,0,0-0.1,0-0.1l0-0.1l-0.1,0c-1-0.2-1.6-0.7-2-1.5
					c-0.5-1-0.3-2.4,0.6-3.2c0.6-0.6,1.2-0.9,2-1c1.7-0.3,3.1-1.2,4.2-1.9c1.4-1,2.8-2.1,4-3.5c1.5-1.6,2.4-3,3.1-4.4
					c0.2-0.5,0.4-1.1,0.5-1.9c0.1-1.1,0.7-2,1.8-2.6c0.4-0.2,0.8-0.3,1.3-0.3c0.4,0,0.7,0.1,1.1,0.2c0.8,0.3,1.4,1,1.6,1.8
					c0,0.2,0.1,0.4,0.4,0.4c0.9,0.2,1.6,0.8,1.9,1.6C39.3,1.5,39.2,2.5,38.7,3.2z"/>
			</g>
		</g>
	</g>
</g>
</svg>
