<?xml version="1.0" encoding="utf-8"?>
<!-- Generator: Adobe Illustrator 19.0.0, SVG Export Plug-In . SVG Version: 6.00 Build 0)  -->
<svg version="1.1" id="Brain_Icon" xmlns="http://www.w3.org/2000/svg" xmlns:xlink="http://www.w3.org/1999/xlink" x="0px" y="0px"
	 viewBox="-462 263 35 35" style="enable-background:new -462 263 35 35;" xml:space="preserve">
<style type="text/css">
	.st0{fill:none;}
	.st1{clip-path:url(#SVGID_2_);}
	.st2{fill:none;stroke:#272626;stroke-width:0.51;stroke-linejoin:round;stroke-miterlimit:10;}
	.st3{clip-path:url(#SVGID_4_);}
	.st4{clip-path:url(#SVGID_6_);}
	.st5{fill:none;stroke:#EC6B4C;stroke-width:0.51;stroke-linejoin:round;stroke-miterlimit:10;}
	.st6{clip-path:url(#SVGID_8_);}
	.st7{clip-path:url(#SVGID_10_);}
	.st8{clip-path:url(#SVGID_12_);}
	.st9{clip-path:url(#SVGID_14_);}
	.st10{clip-path:url(#SVGID_16_);}
	.st11{clip-path:url(#SVGID_18_);}
	.st12{clip-path:url(#SVGID_20_);}
	.st13{clip-path:url(#SVGID_22_);}
	.st14{clip-path:url(#SVGID_24_);}
	.st15{clip-path:url(#SVGID_26_);}
	.st16{clip-path:url(#SVGID_28_);}
	.st17{fill:none;stroke:#272626;stroke-width:0.52;stroke-linejoin:round;stroke-miterlimit:10;}
	.st18{fill:#EC6B4C;}
	.st19{fill:none;stroke:#EC6B4C;stroke-width:0.88;stroke-linejoin:round;stroke-miterlimit:10;}
</style>
<g id="Group_3" transform="translate(12 8)">
	<path id="Clip_2-2" class="st0" d="M-455.3,263.3c-1.4,0-2.7,0.3-4,0.8l0,0c-1.1,0.5-1.9,1.4-2.3,2.5l0,0c-0.2,0.8,0.1,1.6,0.7,2.1
		l0,0c0.5,0.4,1.1,0.6,1.8,0.6l0,0c0.6,0,1.2,0,1.9,0l0,0c1.2,0,2.3,0.5,3.2,1.3l0,0c0.4,0.4,0.9,0.7,1.5,1l0,0
		c0.9,0.5,2,0.2,2.6-0.6l0,0c0.5-0.7,0.9-1.5,0.9-2.3l0,0c0.1-1.1-0.2-2.2-0.9-3l0,0c-0.9-1.1-2.1-1.9-3.4-2.2l0,0
		C-454,263.3-454.7,263.3-455.3,263.3L-455.3,263.3"/>
	<g>
		<defs>
			<path id="SVGID_1_" d="M-455.3,263.3c-1.4,0-2.7,0.3-4,0.8l0,0c-1.1,0.5-1.9,1.4-2.3,2.5l0,0c-0.2,0.8,0.1,1.6,0.7,2.1l0,0
				c0.5,0.4,1.1,0.6,1.8,0.6l0,0c0.6,0,1.2,0,1.9,0l0,0c1.2,0,2.3,0.5,3.2,1.3l0,0c0.4,0.4,0.9,0.7,1.5,1l0,0c0.9,0.5,2,0.2,2.6-0.6
				l0,0c0.5-0.7,0.9-1.5,0.9-2.3l0,0c0.1-1.1-0.2-2.2-0.9-3l0,0c-0.9-1.1-2.1-1.9-3.4-2.2l0,0C-454,263.3-454.7,263.3-455.3,263.3
				L-455.3,263.3"/>
		</defs>
		<clipPath id="SVGID_2_">
			<use xlink:href="#SVGID_1_"  style="overflow:visible;"/>
		</clipPath>
		<g id="Group_3-2" class="st1">
			<path id="Stroke_11" class="st2" d="M-446.6,249.5l-32.8,29.7"/>
		</g>
	</g>
</g>
<g id="Group_6" transform="translate(12 8)">
	<path id="Clip_5-2" class="st0" d="M-455.3,263.3c-1.4,0-2.7,0.3-4,0.8l0,0c-1.1,0.5-1.9,1.4-2.3,2.5l0,0c-0.2,0.8,0.1,1.6,0.7,2.1
		l0,0c0.5,0.4,1.1,0.6,1.8,0.6l0,0c0.6,0,1.2,0,1.9,0l0,0c1.2,0,2.3,0.5,3.2,1.3l0,0c0.4,0.4,0.9,0.7,1.5,1l0,0
		c0.9,0.5,2,0.2,2.6-0.6l0,0c0.5-0.7,0.9-1.5,0.9-2.3l0,0c0.1-1.1-0.2-2.2-0.9-3l0,0c-0.9-1.1-2.1-1.9-3.4-2.2l0,0
		C-454,263.3-454.7,263.3-455.3,263.3L-455.3,263.3"/>
	<g>
		<defs>
			<path id="SVGID_3_" d="M-455.3,263.3c-1.4,0-2.7,0.3-4,0.8l0,0c-1.1,0.5-1.9,1.4-2.3,2.5l0,0c-0.2,0.8,0.1,1.6,0.7,2.1l0,0
				c0.5,0.4,1.1,0.6,1.8,0.6l0,0c0.6,0,1.2,0,1.9,0l0,0c1.2,0,2.3,0.5,3.2,1.3l0,0c0.4,0.4,0.9,0.7,1.5,1l0,0c0.9,0.5,2,0.2,2.6-0.6
				l0,0c0.5-0.7,0.9-1.5,0.9-2.3l0,0c0.1-1.1-0.2-2.2-0.9-3l0,0c-0.9-1.1-2.1-1.9-3.4-2.2l0,0C-454,263.3-454.7,263.3-455.3,263.3
				L-455.3,263.3"/>
		</defs>
		<clipPath id="SVGID_4_">
			<use xlink:href="#SVGID_3_"  style="overflow:visible;"/>
		</clipPath>
		<g id="Group_6-2" class="st3">
			<path id="Stroke_4" class="st2" d="M-445.8,250.2l-32.8,29.7"/>
		</g>
	</g>
</g>
<g id="Group_9" transform="translate(12 8)">
	<path id="Clip_8-2" class="st0" d="M-455.3,263.3c-1.4,0-2.7,0.3-4,0.8l0,0c-1.1,0.5-1.9,1.4-2.3,2.5l0,0c-0.2,0.8,0.1,1.6,0.7,2.1
		l0,0c0.5,0.4,1.1,0.6,1.8,0.6l0,0c0.6,0,1.2,0,1.9,0l0,0c1.2,0,2.3,0.5,3.2,1.3l0,0c0.4,0.4,0.9,0.7,1.5,1l0,0
		c0.9,0.5,2,0.2,2.6-0.6l0,0c0.5-0.7,0.9-1.5,0.9-2.3l0,0c0.1-1.1-0.2-2.2-0.9-3l0,0c-0.9-1.1-2.1-1.9-3.4-2.2l0,0
		C-454,263.3-454.7,263.3-455.3,263.3L-455.3,263.3"/>
	<g>
		<defs>
			<path id="SVGID_5_" d="M-455.3,263.3c-1.4,0-2.7,0.3-4,0.8l0,0c-1.1,0.5-1.9,1.4-2.3,2.5l0,0c-0.2,0.8,0.1,1.6,0.7,2.1l0,0
				c0.5,0.4,1.1,0.6,1.8,0.6l0,0c0.6,0,1.2,0,1.9,0l0,0c1.2,0,2.3,0.5,3.2,1.3l0,0c0.4,0.4,0.9,0.7,1.5,1l0,0c0.9,0.5,2,0.2,2.6-0.6
				l0,0c0.5-0.7,0.9-1.5,0.9-2.3l0,0c0.1-1.1-0.2-2.2-0.9-3l0,0c-0.9-1.1-2.1-1.9-3.4-2.2l0,0C-454,263.3-454.7,263.3-455.3,263.3
				L-455.3,263.3"/>
		</defs>
		<clipPath id="SVGID_6_">
			<use xlink:href="#SVGID_5_"  style="overflow:visible;"/>
		</clipPath>
		<g id="Group_9-2" class="st4">
			<path id="Stroke_7" class="st5" d="M-445,250.9l-32.8,29.7"/>
		</g>
	</g>
</g>
<g id="Group_12" transform="translate(12 8)">
	<path id="Clip_11-2" class="st0" d="M-455.3,263.3c-1.4,0-2.7,0.3-4,0.8l0,0c-1.1,0.5-1.9,1.4-2.3,2.5l0,0
		c-0.2,0.8,0.1,1.6,0.7,2.1l0,0c0.5,0.4,1.1,0.6,1.8,0.6l0,0c0.6,0,1.2,0,1.9,0l0,0c1.2,0,2.3,0.5,3.2,1.3l0,0
		c0.4,0.4,0.9,0.7,1.5,1l0,0c0.9,0.5,2,0.2,2.6-0.6l0,0c0.5-0.7,0.9-1.5,0.9-2.3l0,0c0.1-1.1-0.2-2.2-0.9-3l0,0
		c-0.9-1.1-2.1-1.9-3.4-2.2l0,0C-454,263.3-454.7,263.3-455.3,263.3L-455.3,263.3"/>
	<g>
		<defs>
			<path id="SVGID_7_" d="M-455.3,263.3c-1.4,0-2.7,0.3-4,0.8l0,0c-1.1,0.5-1.9,1.4-2.3,2.5l0,0c-0.2,0.8,0.1,1.6,0.7,2.1l0,0
				c0.5,0.4,1.1,0.6,1.8,0.6l0,0c0.6,0,1.2,0,1.9,0l0,0c1.2,0,2.3,0.5,3.2,1.3l0,0c0.4,0.4,0.9,0.7,1.5,1l0,0c0.9,0.5,2,0.2,2.6-0.6
				l0,0c0.5-0.7,0.9-1.5,0.9-2.3l0,0c0.1-1.1-0.2-2.2-0.9-3l0,0c-0.9-1.1-2.1-1.9-3.4-2.2l0,0C-454,263.3-454.7,263.3-455.3,263.3
				L-455.3,263.3"/>
		</defs>
		<clipPath id="SVGID_8_">
			<use xlink:href="#SVGID_7_"  style="overflow:visible;"/>
		</clipPath>
		<g id="Group_12-2" class="st6">
			<path id="Stroke_10" class="st5" d="M-444.2,251.7l-32.8,29.7"/>
		</g>
	</g>
</g>
<g id="Group_15" transform="translate(12 8)">
	<path id="Clip_14-2" class="st0" d="M-455.3,263.3c-1.4,0-2.7,0.3-4,0.8l0,0c-1.1,0.5-1.9,1.4-2.3,2.5l0,0
		c-0.2,0.8,0.1,1.6,0.7,2.1l0,0c0.5,0.4,1.1,0.6,1.8,0.6l0,0c0.6,0,1.2,0,1.9,0l0,0c1.2,0,2.3,0.5,3.2,1.3l0,0
		c0.4,0.4,0.9,0.7,1.5,1l0,0c0.9,0.5,2,0.2,2.6-0.6l0,0c0.5-0.7,0.9-1.5,0.9-2.3l0,0c0.1-1.1-0.2-2.2-0.9-3l0,0
		c-0.9-1.1-2.1-1.9-3.4-2.2l0,0C-454,263.3-454.7,263.3-455.3,263.3L-455.3,263.3"/>
	<g>
		<defs>
			<path id="SVGID_9_" d="M-455.3,263.3c-1.4,0-2.7,0.3-4,0.8l0,0c-1.1,0.5-1.9,1.4-2.3,2.5l0,0c-0.2,0.8,0.1,1.6,0.7,2.1l0,0
				c0.5,0.4,1.1,0.6,1.8,0.6l0,0c0.6,0,1.2,0,1.9,0l0,0c1.2,0,2.3,0.5,3.2,1.3l0,0c0.4,0.4,0.9,0.7,1.5,1l0,0c0.9,0.5,2,0.2,2.6-0.6
				l0,0c0.5-0.7,0.9-1.5,0.9-2.3l0,0c0.1-1.1-0.2-2.2-0.9-3l0,0c-0.9-1.1-2.1-1.9-3.4-2.2l0,0C-454,263.3-454.7,263.3-455.3,263.3
				L-455.3,263.3"/>
		</defs>
		<clipPath id="SVGID_10_">
			<use xlink:href="#SVGID_9_"  style="overflow:visible;"/>
		</clipPath>
		<g id="Group_15-2" class="st7">
			<path id="Stroke_13" class="st5" d="M-443.4,252.4l-32.8,29.7"/>
		</g>
	</g>
</g>
<g id="Group_18" transform="translate(12 8)">
	<path id="Clip_17-2" class="st0" d="M-455.3,263.3c-1.4,0-2.7,0.3-4,0.8l0,0c-1.1,0.5-1.9,1.4-2.3,2.5l0,0
		c-0.2,0.8,0.1,1.6,0.7,2.1l0,0c0.5,0.4,1.1,0.6,1.8,0.6l0,0c0.6,0,1.2,0,1.9,0l0,0c1.2,0,2.3,0.5,3.2,1.3l0,0
		c0.4,0.4,0.9,0.7,1.5,1l0,0c0.9,0.5,2,0.2,2.6-0.6l0,0c0.5-0.7,0.9-1.5,0.9-2.3l0,0c0.1-1.1-0.2-2.2-0.9-3l0,0
		c-0.9-1.1-2.1-1.9-3.4-2.2l0,0C-454,263.3-454.7,263.3-455.3,263.3L-455.3,263.3"/>
	<g>
		<defs>
			<path id="SVGID_11_" d="M-455.3,263.3c-1.4,0-2.7,0.3-4,0.8l0,0c-1.1,0.5-1.9,1.4-2.3,2.5l0,0c-0.2,0.8,0.1,1.6,0.7,2.1l0,0
				c0.5,0.4,1.1,0.6,1.8,0.6l0,0c0.6,0,1.2,0,1.9,0l0,0c1.2,0,2.3,0.5,3.2,1.3l0,0c0.4,0.4,0.9,0.7,1.5,1l0,0c0.9,0.5,2,0.2,2.6-0.6
				l0,0c0.5-0.7,0.9-1.5,0.9-2.3l0,0c0.1-1.1-0.2-2.2-0.9-3l0,0c-0.9-1.1-2.1-1.9-3.4-2.2l0,0C-454,263.3-454.7,263.3-455.3,263.3
				L-455.3,263.3"/>
		</defs>
		<clipPath id="SVGID_12_">
			<use xlink:href="#SVGID_11_"  style="overflow:visible;"/>
		</clipPath>
		<g id="Group_18-2" class="st8">
			<path id="Stroke_16" class="st5" d="M-442.5,253.2l-32.8,29.7"/>
		</g>
	</g>
</g>
<g id="Group_21" transform="translate(12 8)">
	<path id="Clip_20-2" class="st0" d="M-455.3,263.3c-1.4,0-2.7,0.3-4,0.8l0,0c-1.1,0.5-1.9,1.4-2.3,2.5l0,0
		c-0.2,0.8,0.1,1.6,0.7,2.1l0,0c0.5,0.4,1.1,0.6,1.8,0.6l0,0c0.6,0,1.2,0,1.9,0l0,0c1.2,0,2.3,0.5,3.2,1.3l0,0
		c0.4,0.4,0.9,0.7,1.5,1l0,0c0.9,0.5,2,0.2,2.6-0.6l0,0c0.5-0.7,0.9-1.5,0.9-2.3l0,0c0.1-1.1-0.2-2.2-0.9-3l0,0
		c-0.9-1.1-2.1-1.9-3.4-2.2l0,0C-454,263.3-454.7,263.3-455.3,263.3L-455.3,263.3"/>
	<g>
		<defs>
			<path id="SVGID_13_" d="M-455.3,263.3c-1.4,0-2.7,0.3-4,0.8l0,0c-1.1,0.5-1.9,1.4-2.3,2.5l0,0c-0.2,0.8,0.1,1.6,0.7,2.1l0,0
				c0.5,0.4,1.1,0.6,1.8,0.6l0,0c0.6,0,1.2,0,1.9,0l0,0c1.2,0,2.3,0.5,3.2,1.3l0,0c0.4,0.4,0.9,0.7,1.5,1l0,0c0.9,0.5,2,0.2,2.6-0.6
				l0,0c0.5-0.7,0.9-1.5,0.9-2.3l0,0c0.1-1.1-0.2-2.2-0.9-3l0,0c-0.9-1.1-2.1-1.9-3.4-2.2l0,0C-454,263.3-454.7,263.3-455.3,263.3
				L-455.3,263.3"/>
		</defs>
		<clipPath id="SVGID_14_">
			<use xlink:href="#SVGID_13_"  style="overflow:visible;"/>
		</clipPath>
		<g id="Group_21-2" class="st9">
			<path id="Stroke_19" class="st5" d="M-441.7,253.9l-32.8,29.7"/>
		</g>
	</g>
</g>
<g id="Group_24" transform="translate(12 8)">
	<path id="Clip_23-2" class="st0" d="M-455.3,263.3c-1.4,0-2.7,0.3-4,0.8l0,0c-1.1,0.5-1.9,1.4-2.3,2.5l0,0
		c-0.2,0.8,0.1,1.6,0.7,2.1l0,0c0.5,0.4,1.1,0.6,1.8,0.6l0,0c0.6,0,1.2,0,1.9,0l0,0c1.2,0,2.3,0.5,3.2,1.3l0,0
		c0.4,0.4,0.9,0.7,1.5,1l0,0c0.9,0.5,2,0.2,2.6-0.6l0,0c0.5-0.7,0.9-1.5,0.9-2.3l0,0c0.1-1.1-0.2-2.2-0.9-3l0,0
		c-0.9-1.1-2.1-1.9-3.4-2.2l0,0C-454,263.3-454.7,263.3-455.3,263.3L-455.3,263.3"/>
	<g>
		<defs>
			<path id="SVGID_15_" d="M-455.3,263.3c-1.4,0-2.7,0.3-4,0.8l0,0c-1.1,0.5-1.9,1.4-2.3,2.5l0,0c-0.2,0.8,0.1,1.6,0.7,2.1l0,0
				c0.5,0.4,1.1,0.6,1.8,0.6l0,0c0.6,0,1.2,0,1.9,0l0,0c1.2,0,2.3,0.5,3.2,1.3l0,0c0.4,0.4,0.9,0.7,1.5,1l0,0c0.9,0.5,2,0.2,2.6-0.6
				l0,0c0.5-0.7,0.9-1.5,0.9-2.3l0,0c0.1-1.1-0.2-2.2-0.9-3l0,0c-0.9-1.1-2.1-1.9-3.4-2.2l0,0C-454,263.3-454.7,263.3-455.3,263.3
				L-455.3,263.3"/>
		</defs>
		<clipPath id="SVGID_16_">
			<use xlink:href="#SVGID_15_"  style="overflow:visible;"/>
		</clipPath>
		<g id="Group_24-2" class="st10">
			<path id="Stroke_22" class="st5" d="M-440.9,254.7l-32.8,29.7"/>
		</g>
	</g>
</g>
<g id="Group_27" transform="translate(12 8)">
	<path id="Clip_26-2" class="st0" d="M-455.3,263.3c-1.4,0-2.7,0.3-4,0.8l0,0c-1.1,0.5-1.9,1.4-2.3,2.5l0,0
		c-0.2,0.8,0.1,1.6,0.7,2.1l0,0c0.5,0.4,1.1,0.6,1.8,0.6l0,0c0.6,0,1.2,0,1.9,0l0,0c1.2,0,2.3,0.5,3.2,1.3l0,0
		c0.4,0.4,0.9,0.7,1.5,1l0,0c0.9,0.5,2,0.2,2.6-0.6l0,0c0.5-0.7,0.9-1.5,0.9-2.3l0,0c0.1-1.1-0.2-2.2-0.9-3l0,0
		c-0.9-1.1-2.1-1.9-3.4-2.2l0,0C-454,263.3-454.7,263.3-455.3,263.3L-455.3,263.3"/>
	<g>
		<defs>
			<path id="SVGID_17_" d="M-455.3,263.3c-1.4,0-2.7,0.3-4,0.8l0,0c-1.1,0.5-1.9,1.4-2.3,2.5l0,0c-0.2,0.8,0.1,1.6,0.7,2.1l0,0
				c0.5,0.4,1.1,0.6,1.8,0.6l0,0c0.6,0,1.2,0,1.9,0l0,0c1.2,0,2.3,0.5,3.2,1.3l0,0c0.4,0.4,0.9,0.7,1.5,1l0,0c0.9,0.5,2,0.2,2.6-0.6
				l0,0c0.5-0.7,0.9-1.5,0.9-2.3l0,0c0.1-1.1-0.2-2.2-0.9-3l0,0c-0.9-1.1-2.1-1.9-3.4-2.2l0,0C-454,263.3-454.7,263.3-455.3,263.3
				L-455.3,263.3"/>
		</defs>
		<clipPath id="SVGID_18_">
			<use xlink:href="#SVGID_17_"  style="overflow:visible;"/>
		</clipPath>
		<g id="Group_27-2" class="st11">
			<path id="Stroke_25" class="st5" d="M-440.1,255.4l-32.8,29.7"/>
		</g>
	</g>
</g>
<g id="Group_30" transform="translate(12 8)">
	<path id="Clip_29-2" class="st0" d="M-455.3,263.3c-1.4,0-2.7,0.3-4,0.8l0,0c-1.1,0.5-1.9,1.4-2.3,2.5l0,0
		c-0.2,0.8,0.1,1.6,0.7,2.1l0,0c0.5,0.4,1.1,0.6,1.8,0.6l0,0c0.6,0,1.2,0,1.9,0l0,0c1.2,0,2.3,0.5,3.2,1.3l0,0
		c0.4,0.4,0.9,0.7,1.5,1l0,0c0.9,0.5,2,0.2,2.6-0.6l0,0c0.5-0.7,0.9-1.5,0.9-2.3l0,0c0.1-1.1-0.2-2.2-0.9-3l0,0
		c-0.9-1.1-2.1-1.9-3.4-2.2l0,0C-454,263.3-454.7,263.3-455.3,263.3L-455.3,263.3"/>
	<g>
		<defs>
			<path id="SVGID_19_" d="M-455.3,263.3c-1.4,0-2.7,0.3-4,0.8l0,0c-1.1,0.5-1.9,1.4-2.3,2.5l0,0c-0.2,0.8,0.1,1.6,0.7,2.1l0,0
				c0.5,0.4,1.1,0.6,1.8,0.6l0,0c0.6,0,1.2,0,1.9,0l0,0c1.2,0,2.3,0.5,3.2,1.3l0,0c0.4,0.4,0.9,0.7,1.5,1l0,0c0.9,0.5,2,0.2,2.6-0.6
				l0,0c0.5-0.7,0.9-1.5,0.9-2.3l0,0c0.1-1.1-0.2-2.2-0.9-3l0,0c-0.9-1.1-2.1-1.9-3.4-2.2l0,0C-454,263.3-454.7,263.3-455.3,263.3
				L-455.3,263.3"/>
		</defs>
		<clipPath id="SVGID_20_">
			<use xlink:href="#SVGID_19_"  style="overflow:visible;"/>
		</clipPath>
		<g id="Group_30-2" class="st12">
			<path id="Stroke_28" class="st5" d="M-439.2,256.2l-32.8,29.7"/>
		</g>
	</g>
</g>
<g id="Group_33" transform="translate(12 8)">
	<path id="Clip_32-2" class="st0" d="M-455.3,263.3c-1.4,0-2.7,0.3-4,0.8l0,0c-1.1,0.5-1.9,1.4-2.3,2.5l0,0
		c-0.2,0.8,0.1,1.6,0.7,2.1l0,0c0.5,0.4,1.1,0.6,1.8,0.6l0,0c0.6,0,1.2,0,1.9,0l0,0c1.2,0,2.3,0.5,3.2,1.3l0,0
		c0.4,0.4,0.9,0.7,1.5,1l0,0c0.9,0.5,2,0.2,2.6-0.6l0,0c0.5-0.7,0.9-1.5,0.9-2.3l0,0c0.1-1.1-0.2-2.2-0.9-3l0,0
		c-0.9-1.1-2.1-1.9-3.4-2.2l0,0C-454,263.3-454.7,263.3-455.3,263.3L-455.3,263.3"/>
	<g>
		<defs>
			<path id="SVGID_21_" d="M-455.3,263.3c-1.4,0-2.7,0.3-4,0.8l0,0c-1.1,0.5-1.9,1.4-2.3,2.5l0,0c-0.2,0.8,0.1,1.6,0.7,2.1l0,0
				c0.5,0.4,1.1,0.6,1.8,0.6l0,0c0.6,0,1.2,0,1.9,0l0,0c1.2,0,2.3,0.5,3.2,1.3l0,0c0.4,0.4,0.9,0.7,1.5,1l0,0c0.9,0.5,2,0.2,2.6-0.6
				l0,0c0.5-0.7,0.9-1.5,0.9-2.3l0,0c0.1-1.1-0.2-2.2-0.9-3l0,0c-0.9-1.1-2.1-1.9-3.4-2.2l0,0C-454,263.3-454.7,263.3-455.3,263.3
				L-455.3,263.3"/>
		</defs>
		<clipPath id="SVGID_22_">
			<use xlink:href="#SVGID_21_"  style="overflow:visible;"/>
		</clipPath>
		<g id="Group_33-2" class="st13">
			<path id="Stroke_31" class="st5" d="M-438.4,256.9l-32.8,29.7"/>
		</g>
	</g>
</g>
<g id="Group_36" transform="translate(12 8)">
	<path id="Clip_35-2" class="st0" d="M-455.3,263.3c-1.4,0-2.7,0.3-4,0.8l0,0c-1.1,0.5-1.9,1.4-2.3,2.5l0,0
		c-0.2,0.8,0.1,1.6,0.7,2.1l0,0c0.5,0.4,1.1,0.6,1.8,0.6l0,0c0.6,0,1.2,0,1.9,0l0,0c1.2,0,2.3,0.5,3.2,1.3l0,0
		c0.4,0.4,0.9,0.7,1.5,1l0,0c0.9,0.5,2,0.2,2.6-0.6l0,0c0.5-0.7,0.9-1.5,0.9-2.3l0,0c0.1-1.1-0.2-2.2-0.9-3l0,0
		c-0.9-1.1-2.1-1.9-3.4-2.2l0,0C-454,263.3-454.7,263.3-455.3,263.3L-455.3,263.3"/>
	<g>
		<defs>
			<path id="SVGID_23_" d="M-455.3,263.3c-1.4,0-2.7,0.3-4,0.8l0,0c-1.1,0.5-1.9,1.4-2.3,2.5l0,0c-0.2,0.8,0.1,1.6,0.7,2.1l0,0
				c0.5,0.4,1.1,0.6,1.8,0.6l0,0c0.6,0,1.2,0,1.9,0l0,0c1.2,0,2.3,0.5,3.2,1.3l0,0c0.4,0.4,0.9,0.7,1.5,1l0,0c0.9,0.5,2,0.2,2.6-0.6
				l0,0c0.5-0.7,0.9-1.5,0.9-2.3l0,0c0.1-1.1-0.2-2.2-0.9-3l0,0c-0.9-1.1-2.1-1.9-3.4-2.2l0,0C-454,263.3-454.7,263.3-455.3,263.3
				L-455.3,263.3"/>
		</defs>
		<clipPath id="SVGID_24_">
			<use xlink:href="#SVGID_23_"  style="overflow:visible;"/>
		</clipPath>
		<g id="Group_36-2" class="st14">
			<path id="Stroke_34" class="st5" d="M-437.6,257.6l-32.8,29.7"/>
		</g>
	</g>
</g>
<g id="Group_39" transform="translate(12 8)">
	<path id="Clip_38-2" class="st0" d="M-455.3,263.3c-1.4,0-2.7,0.3-4,0.8l0,0c-1.1,0.5-1.9,1.4-2.3,2.5l0,0
		c-0.2,0.8,0.1,1.6,0.7,2.1l0,0c0.5,0.4,1.1,0.6,1.8,0.6l0,0c0.6,0,1.2,0,1.9,0l0,0c1.2,0,2.3,0.5,3.2,1.3l0,0
		c0.4,0.4,0.9,0.7,1.5,1l0,0c0.9,0.5,2,0.2,2.6-0.6l0,0c0.5-0.7,0.9-1.5,0.9-2.3l0,0c0.1-1.1-0.2-2.2-0.9-3l0,0
		c-0.9-1.1-2.1-1.9-3.4-2.2l0,0C-454,263.3-454.7,263.3-455.3,263.3L-455.3,263.3"/>
	<g>
		<defs>
			<path id="SVGID_25_" d="M-455.3,263.3c-1.4,0-2.7,0.3-4,0.8l0,0c-1.1,0.5-1.9,1.4-2.3,2.5l0,0c-0.2,0.8,0.1,1.6,0.7,2.1l0,0
				c0.5,0.4,1.1,0.6,1.8,0.6l0,0c0.6,0,1.2,0,1.9,0l0,0c1.2,0,2.3,0.5,3.2,1.3l0,0c0.4,0.4,0.9,0.7,1.5,1l0,0c0.9,0.5,2,0.2,2.6-0.6
				l0,0c0.5-0.7,0.9-1.5,0.9-2.3l0,0c0.1-1.1-0.2-2.2-0.9-3l0,0c-0.9-1.1-2.1-1.9-3.4-2.2l0,0C-454,263.3-454.7,263.3-455.3,263.3
				L-455.3,263.3"/>
		</defs>
		<clipPath id="SVGID_26_">
			<use xlink:href="#SVGID_25_"  style="overflow:visible;"/>
		</clipPath>
		<g id="Group_39-2" class="st15">
			<path id="Stroke_37" class="st5" d="M-436.8,258.4l-32.8,29.7"/>
		</g>
	</g>
</g>
<g id="Group_42" transform="translate(12 8)">
	<path id="Clip_41-2" class="st0" d="M-455.3,263.3c-1.4,0-2.7,0.3-4,0.8l0,0c-1.1,0.5-1.9,1.4-2.3,2.5l0,0
		c-0.2,0.8,0.1,1.6,0.7,2.1l0,0c0.5,0.4,1.1,0.6,1.8,0.6l0,0c0.6,0,1.2,0,1.9,0l0,0c1.2,0,2.3,0.5,3.2,1.3l0,0
		c0.4,0.4,0.9,0.7,1.5,1l0,0c0.9,0.5,2,0.2,2.6-0.6l0,0c0.5-0.7,0.9-1.5,0.9-2.3l0,0c0.1-1.1-0.2-2.2-0.9-3l0,0
		c-0.9-1.1-2.1-1.9-3.4-2.2l0,0C-454,263.3-454.7,263.3-455.3,263.3L-455.3,263.3"/>
	<g>
		<defs>
			<path id="SVGID_27_" d="M-455.3,263.3c-1.4,0-2.7,0.3-4,0.8l0,0c-1.1,0.5-1.9,1.4-2.3,2.5l0,0c-0.2,0.8,0.1,1.6,0.7,2.1l0,0
				c0.5,0.4,1.1,0.6,1.8,0.6l0,0c0.6,0,1.2,0,1.9,0l0,0c1.2,0,2.3,0.5,3.2,1.3l0,0c0.4,0.4,0.9,0.7,1.5,1l0,0c0.9,0.5,2,0.2,2.6-0.6
				l0,0c0.5-0.7,0.9-1.5,0.9-2.3l0,0c0.1-1.1-0.2-2.2-0.9-3l0,0c-0.9-1.1-2.1-1.9-3.4-2.2l0,0C-454,263.3-454.7,263.3-455.3,263.3
				L-455.3,263.3"/>
		</defs>
		<clipPath id="SVGID_28_">
			<use xlink:href="#SVGID_27_"  style="overflow:visible;"/>
		</clipPath>
		<g id="Group_42-2" class="st16">
			<path id="Stroke_40" class="st17" d="M-435.9,259.1l-32.8,29.7"/>
		</g>
	</g>
</g>
<path id="Fill_65" class="st18" d="M-444.5,298c-9.7,0-17.5-7.8-17.5-17.5c0-4.6,1.8-9.1,5.1-12.4c6.8-6.8,17.9-6.8,24.8,0
	s6.8,17.9,0,24.8C-435.4,296.2-439.9,298-444.5,298z M-444.5,263.9c-9.2,0-16.6,7.5-16.6,16.6c0,4.4,1.8,8.6,4.9,11.7
	c6.6,6.4,17.1,6.3,23.5-0.3c6.3-6.5,6.3-16.8,0-23.2C-435.9,265.6-440.1,263.9-444.5,263.9z"/>
<path id="Stroke_53" class="st19" d="M-447,292c0,0-0.1,0-0.1,0c-0.2-1.1-0.4-2.2-0.5-3.3c0-0.1,0-0.1,0-0.1
	c-0.1-0.3-0.3-0.4-0.6-0.3c-0.4,0.2-0.8,0.4-1.3,0.4c-0.4,0-0.8,0-1.3,0c-0.6-0.1-1-0.7-0.9-1.3c0-0.1,0-0.1,0-0.1
	c0-0.2,0.1-0.4,0.2-0.6c0.1-0.4-0.1-0.8-0.5-1c0,0-0.1,0-0.1-0.1c-0.3-0.2-0.4-0.6,0-0.9c0.2-0.1,0.2-0.2,0-0.3
	c-0.1-0.1-0.2-0.1-0.3-0.1c-0.2-0.1-0.4-0.3-0.3-0.6c0,0,0-0.1,0-0.1c0.1-0.3,0.2-0.6,0.2-0.9c-0.3-0.1-0.7-0.1-1-0.2
	c-0.1,0-0.2,0-0.3-0.1c-0.2-0.1-0.4-0.3-0.3-0.6c0-0.1,0.1-0.3,0.2-0.4c0.5-0.8,1-1.6,1.4-2.3c0.2-0.4,0.3-0.9,0.2-1.4
	c-0.1-0.4-0.2-0.8-0.3-1.2c-0.3-1.8,0.2-3.6,1.5-4.9c1-1.1,2.4-1.8,3.8-2.2c1.3-0.4,2.7-0.5,4-0.4c1.2,0.1,2.5,0.3,3.6,0.8
	c1.2,0.4,2.2,1.2,3,2.2c0.7,0.9,1.2,2,1.4,3.2c0.4,2.4-0.2,4.8-1.8,6.6c-0.3,0.4-0.6,0.7-0.9,1c-0.6,0.6-1,1.3-1.2,2.1
	c-0.1,0.4,0,0.9,0,1.3c0.1,0.9,0.2,1.8,0.3,2.7c0,0.3,0.1,0.5,0.1,0.8c0,0.1,0,0.2-0.1,0.2"/>
</svg>
