<?xml version="1.0" encoding="utf-8"?>
<!-- Generator: Adobe Illustrator 19.0.0, SVG Export Plug-In . SVG Version: 6.00 Build 0)  -->
<svg version="1.1" id="Skin_Icon" xmlns="http://www.w3.org/2000/svg" xmlns:xlink="http://www.w3.org/1999/xlink" x="0px" y="0px"
	 viewBox="-462 263 35 35" style="enable-background:new -462 263 35 35;" xml:space="preserve">
<style type="text/css">
	.st0{fill:#EC6B4C;}
	.st1{fill:none;stroke:#EC6B4C;stroke-width:0.88;stroke-linecap:round;stroke-linejoin:round;stroke-miterlimit:10;}
	.st2{fill:#EC6B4C;stroke:#EC6B4C;stroke-width:0.28;stroke-miterlimit:10;}
</style>
<path id="Fill_61" class="st0" d="M-444.5,298c-9.7,0-17.5-7.8-17.5-17.5c0-4.6,1.8-9.1,5.1-12.4c6.8-6.8,17.9-6.8,24.8,0
	s6.8,17.9,0,24.8C-435.4,296.2-439.9,298-444.5,298z M-444.5,263.9c-9.2,0-16.6,7.5-16.6,16.6c0,4.4,1.8,8.6,4.9,11.7
	c6.6,6.4,17.1,6.3,23.5-0.3c6.3-6.5,6.3-16.8,0-23.2C-435.9,265.6-440.1,263.9-444.5,263.9z"/>
<path id="Stroke_1" class="st1" d="M-435.7,274.5c0.9,1.8,0.6,5.3-0.2,9.5c-0.8,4.1-5.1,9-8.8,9c-3.3,0-8.3-4.9-8.8-9
	c-0.6-4.2-0.8-6.4-0.2-9.2c0.6-2.8,3.8-5.7,9-5.7C-439.1,269-437,271.8-435.7,274.5z"/>
<path id="Fill_32" class="st2" d="M-444.6,289c-0.4,0-0.8-0.1-1.2-0.2c-0.4-0.1-0.8-0.4-1-0.7c-0.1-0.1-0.2-0.3-0.3-0.4l-0.1-0.1
	c-0.1-0.1-0.2-0.2-0.4-0.3c0,0-0.1,0-0.1-0.1c0-0.1,0-0.1,0-0.2c0,0,0,0,0,0l0,0c0,0,0,0,0,0c0.4-0.3,0.8-0.6,1.2-0.9
	c0.1-0.1,0.2-0.2,0.4-0.3c0.1-0.1,0.3-0.2,0.5-0.1c0.1,0,0.1,0,0.2,0c0.1,0,0.2,0,0.3,0.1c0.1,0,0.1,0,0.2,0.1c0.1,0,0.2,0,0.4,0
	c0.2,0,0.3,0,0.5-0.1c0.2-0.1,0.3-0.1,0.5-0.1c0,0,0.1,0,0.1,0c0.2,0,0.4,0.1,0.5,0.2c0.2,0.1,0.3,0.3,0.5,0.5
	c0.3,0.3,0.6,0.5,1,0.7c0.1,0,0.1,0.1,0.1,0.2c0,0.1-0.1,0.1-0.1,0.1c-0.2,0.1-0.4,0.2-0.5,0.4c-0.1,0.2-0.3,0.4-0.5,0.6
	c-0.3,0.3-0.8,0.5-1.2,0.6C-444,288.9-444.3,289-444.6,289z M-447,287.3L-447,287.3l0.1,0.2c0.1,0.2,0.3,0.3,0.4,0.5
	c0.1,0.2,0.3,0.3,0.5,0.4c0.3,0.2,0.7,0.3,1.1,0.3c0.1,0,0.2,0,0.3,0c0.2,0,0.4,0,0.6,0c0.3,0,0.6-0.1,0.9-0.3
	c0.3-0.2,0.5-0.4,0.7-0.6c0.1-0.1,0.1-0.2,0.2-0.2v0l0.1-0.1h0h0l-0.3,0c-0.2,0-0.4,0.1-0.7,0.1c-0.3,0-0.7,0.1-1.1,0.1
	c-0.1,0-0.2,0-0.4,0c-0.2,0-0.4,0-0.7,0c-0.4,0-0.7-0.1-1-0.1c-0.2,0-0.3,0-0.5-0.1L-447,287.3z M-445.7,285.9c-0.1,0-0.2,0-0.3,0.1
	c-0.1,0.1-0.2,0.2-0.3,0.3c-0.1,0.2-0.3,0.3-0.5,0.4c-0.1,0.1-0.3,0.2-0.4,0.3l0.2,0c0.1,0,0.3,0,0.4,0.1c0.5,0.1,1,0.1,1.5,0.2
	c0.2,0,0.4,0,0.5,0c0.4,0,0.8,0,1.2-0.1c0.2,0,0.5-0.1,0.8-0.1c0.1,0,0.3,0,0.4-0.1l0.2,0l0,0l0,0c-0.1-0.1-0.5-0.5-0.8-0.7
	c-0.1-0.1-0.2-0.2-0.3-0.2c-0.1-0.1-0.3-0.2-0.4-0.2c0,0-0.1,0-0.1,0c-0.1,0-0.3,0.1-0.4,0.1c-0.2,0.1-0.4,0.1-0.5,0.1
	c-0.1,0-0.3,0-0.4-0.1l-0.2,0c-0.1,0-0.2-0.1-0.3-0.1C-445.6,285.9-445.6,285.9-445.7,285.9z"/>
<path id="Fill_7" class="st2" d="M-451.1,283c-0.2,0-0.4-0.1-0.5-0.2c-0.4,0-0.7-0.1-0.7-0.5c0-0.4,0.3-0.7,0.7-0.5
	c0.3-0.3,0.7-0.3,1,0c0.3,0.3,0.3,0.7,0,0.9c0,0,0,0,0,0C-450.7,283-450.9,283-451.1,283z M-451.1,282c-0.1,0-0.2,0-0.3,0.1
	c-0.1,0.1-0.2,0.4,0,0.5c0,0,0,0,0,0c0.1,0.1,0.2,0.1,0.3,0.1c0.1,0,0.2,0,0.3-0.1c0.1-0.1,0.2-0.4,0-0.5c0,0,0,0,0,0
	C-450.9,282-451,282-451.1,282z"/>
<path id="Fill_9" class="st2" d="M-448.5,284.2c-0.2,0-0.4-0.1-0.5-0.2c-0.3-0.3-0.3-0.7,0-0.9c0,0,0,0,0,0c0.3-0.3,0.7-0.3,1,0
	c0.3,0.3,0.3,0.7,0,0.9c0,0,0,0,0,0C-448.2,284.1-448.3,284.2-448.5,284.2z M-448.5,283.2c-0.1,0-0.2,0-0.3,0.1
	c-0.1,0.1-0.1,0.4,0,0.5c0,0,0,0,0,0c0.1,0.1,0.2,0.1,0.3,0.1c0.1,0,0.2,0,0.3-0.1c0.1-0.1,0.2-0.4,0-0.5c0,0,0,0,0,0
	C-448.3,283.2-448.4,283.2-448.5,283.2z"/>
<path id="Fill_11" class="st2" d="M-450.7,285.6c-0.2,0-0.4-0.1-0.5-0.2c-0.4,0-0.7-0.1-0.7-0.5c0-0.4,0.3-0.7,0.7-0.5
	c0.3-0.3,0.7-0.3,1,0c0.3,0.3,0.3,0.7,0,0.9c0,0,0,0,0,0C-450.3,285.5-450.5,285.6-450.7,285.6z M-450.7,284.6c-0.1,0-0.2,0-0.3,0.1
	c-0.1,0.1-0.2,0.4,0,0.5c0,0,0,0,0,0c0.1,0.1,0.2,0.1,0.3,0.1c0.1,0,0.2,0,0.3-0.1c0.1-0.1,0.2-0.4,0-0.5c0,0,0,0,0,0
	C-450.5,284.6-450.6,284.6-450.7,284.6z"/>
</svg>
