<?xml version="1.0" encoding="utf-8"?>
<!-- Generator: Adobe Illustrator 19.0.0, SVG Export Plug-In . SVG Version: 6.00 Build 0)  -->
<svg version="1.1" id="Stress_Icon" xmlns="http://www.w3.org/2000/svg" xmlns:xlink="http://www.w3.org/1999/xlink" x="0px"
	 y="0px" viewBox="-462 263 35 35" style="enable-background:new -462 263 35 35;" xml:space="preserve">
<style type="text/css">
	.st0{fill:#EC6B4C;}
	.st1{fill:none;stroke:#EC6B4C;stroke-width:0.7;stroke-linejoin:round;stroke-miterlimit:10;}
</style>
<path id="Fill_59" class="st0" d="M-444.5,298c-9.7,0-17.5-7.8-17.5-17.5c0-4.6,1.8-9.1,5.1-12.4c6.8-6.8,17.9-6.8,24.8,0
	s6.8,17.9,0,24.8C-435.4,296.2-439.9,298-444.5,298z M-444.5,263.9c-9.2,0-16.6,7.5-16.6,16.6c0,4.4,1.8,8.6,4.9,11.7
	c6.6,6.4,17.1,6.3,23.5-0.3c6.3-6.5,6.3-16.8,0-23.2C-435.9,265.6-440.1,263.9-444.5,263.9z"/>
<path id="Stroke_3" class="st1" d="M-449.3,286.2l-6.4,0.2l5.3-3.6l-5.3-3.6l6.4,0.2l-2.2-6.1l5.1,3.9l1.8-6.2l1.8,6.2l5.1-3.9
	l-2.2,6.1l6.4-0.2l-5.3,3.6l5.3,3.6l-6.4-0.2"/>
</svg>
